<svg width="42" height="24" viewBox="0 0 42 24" fill="none" xmlns="http://www.w3.org/2000/svg">
<path d="M9.33333 0.75H4.66667C3.42899 0.75 2.242 1.22411 1.36683 2.06802C0.491665 2.91193 0 4.05653 0 5.25V23.25H4.66667V14.25H9.33333V23.25H14V5.25C14 4.05653 13.5083 2.91193 12.6332 2.06802C11.758 1.22411 10.571 0.75 9.33333 0.75ZM9.33333 9.75H4.66667V5.25H9.33333M25.6667 0.75H16.3333V23.25H21V14.25H25.6667C26.9043 14.25 28.0913 13.7759 28.9665 12.932C29.8417 12.0881 30.3333 10.9435 30.3333 9.75V5.25C30.3333 4.05653 29.8417 2.91193 28.9665 2.06802C28.0913 1.22411 26.9043 0.75 25.6667 0.75ZM25.6667 9.75H21V5.25H25.6667M39.6667 5.25V18.75H42V23.25H32.6667V18.75H35V5.25H32.6667V0.75H42V5.25H39.6667Z" fill="#37B992"/>
</svg>
