<svg width="46" height="45" viewBox="0 0 46 45" fill="none" xmlns="http://www.w3.org/2000/svg">
<path d="M14.375 11.25V4.72412C12.3984 5.64697 10.6315 6.84814 9.07422 8.32764C7.51693 9.80713 6.22917 11.4917 5.21094 13.3813L2.53809 12.3047C3.58626 10.2979 4.90397 8.48877 6.49121 6.87744C8.07845 5.26611 9.88281 3.91113 11.9043 2.8125H5.75V0H17.25V11.25H14.375ZM40.7891 13.3813C39.8457 11.6089 38.6553 10.0195 37.2178 8.61328C35.7803 7.20703 34.1481 6.03516 32.3213 5.09766L33.4219 2.50488C35.5781 3.58887 37.5098 4.96582 39.2168 6.63574C40.9238 8.30566 42.3389 10.1953 43.4619 12.3047L40.7891 13.3813ZM2.875 22.5C2.875 23.4961 2.94987 24.4849 3.09961 25.4663C3.24935 26.4478 3.48145 27.4146 3.7959 28.3667L1.14551 29.4434C0.381836 27.2021 0 24.8877 0 22.5C0 20.1123 0.381836 17.7979 1.14551 15.5566L3.81836 16.6333C3.51888 17.5854 3.28678 18.5522 3.12207 19.5337C2.95736 20.5151 2.875 21.5039 2.875 22.5ZM5.18848 31.6187C6.13184 33.3911 7.32975 34.9878 8.78223 36.4087C10.2347 37.8296 11.8669 39.0015 13.6787 39.9243L12.5781 42.5391C10.4219 41.4404 8.49023 40.0562 6.7832 38.3862C5.07617 36.7163 3.65365 34.8193 2.51562 32.6953L5.18848 31.6187ZM43.5518 29.9487L45.5732 31.9263L33.0625 44.187L27.0205 38.2544L29.042 36.2769L33.0625 40.188L43.5518 29.9487ZM43.125 22.5C43.125 21.5039 43.0426 20.5151 42.8779 19.5337C42.7132 18.5522 42.4811 17.5854 42.1816 16.6333L44.8545 15.5566C45.6182 17.7979 46 20.1123 46 22.5H43.125ZM17.0029 41.2866C17.9762 41.5942 18.9645 41.8213 19.9678 41.9678C20.971 42.1143 21.9818 42.1875 23 42.1875V45C20.5443 45 18.1709 44.6265 15.8799 43.8794L17.0029 41.2866Z" fill="#37B992"/>
</svg>
