<svg width="42" height="43" viewBox="0 0 42 43" fill="none" xmlns="http://www.w3.org/2000/svg">
<g clip-path="url(#clip0_685_5968)">
<path d="M22.4669 22.5233C22.2535 22.7406 21.9648 22.8626 21.6639 22.8626C21.3631 22.8626 21.0744 22.7406 20.861 22.5233L17.4444 19.0233C16.9567 19.7661 16.6879 20.6368 16.6699 21.5317C16.6699 22.4754 16.9431 23.398 17.4549 24.1827C17.9668 24.9674 18.6943 25.579 19.5454 25.9401C20.3966 26.3013 21.3331 26.3958 22.2367 26.2117C23.1403 26.0275 23.9703 25.5731 24.6217 24.9058C25.2732 24.2384 25.7168 23.3882 25.8965 22.4626C26.0763 21.537 25.984 20.5775 25.6315 19.7056C25.2789 18.8337 24.6819 18.0885 23.9159 17.5642C23.1498 17.0399 22.2493 16.76 21.328 16.76C20.5268 16.765 19.7412 16.9863 19.0502 17.4017L22.4669 20.9017C22.6721 21.1192 22.7869 21.4099 22.7869 21.7125C22.7869 22.0151 22.6721 22.3058 22.4669 22.5233V22.5233Z" fill="#F06927"/>
<path d="M21.3283 2.865C19.6919 2.86964 18.0637 3.10119 16.488 3.55333L18.3102 8.09167C21.1791 7.40488 24.1884 7.69529 26.8816 8.91887C29.5748 10.1424 31.805 12.2324 33.2339 14.8718C34.6628 17.5111 35.2124 20.5558 34.7994 23.5441C34.3864 26.5323 33.0332 29.3011 30.9452 31.4303C28.8573 33.5596 26.1483 34.9332 23.2294 35.3427C20.3105 35.7523 17.3408 35.1755 14.7707 33.6999C12.2007 32.2242 10.1706 29.9302 8.98839 27.1658C7.80615 24.4014 7.53627 21.3174 8.21968 18.3817L3.80079 16.4917C2.77015 20.2567 2.91976 24.2583 4.2285 27.9316C5.53724 31.6049 7.93903 34.7644 11.0949 36.9643C14.2507 39.1641 18.0013 40.2932 21.8172 40.1921C25.6331 40.091 29.3217 38.7649 32.3624 36.401C35.4031 34.037 37.6423 30.7546 38.764 27.0169C39.8857 23.2793 39.8332 19.2751 38.614 15.5696C37.3948 11.8641 35.0705 8.64443 31.969 6.3649C28.8675 4.08537 25.1455 2.86115 21.3283 2.865V2.865Z" fill="#F06927"/>
<path d="M9.93921 19.1283C9.44076 21.6238 9.73952 24.2174 10.7913 26.5255C11.8431 28.8336 13.592 30.7337 15.7795 31.9448C17.967 33.1559 20.4769 33.6137 22.9381 33.2505C25.3992 32.8873 27.6809 31.7224 29.4458 29.9281C31.2106 28.1337 32.365 25.8052 32.738 23.2868C33.1111 20.7685 32.6831 18.194 31.5173 15.9441C30.3515 13.6942 28.5099 11.8883 26.2647 10.7935C24.0196 9.69875 21.4901 9.37319 19.0503 9.86499L20.975 14.66H21.3281C22.6521 14.66 23.9464 15.062 25.0474 15.8153C26.1484 16.5686 27.0067 17.6393 27.5139 18.8921C28.0211 20.1449 28.1544 21.5236 27.8969 22.854C27.6394 24.1844 27.0028 25.4068 26.0674 26.3666C25.132 27.3265 23.9398 27.9807 22.6415 28.2468C21.3432 28.5128 19.9971 28.3786 18.7733 27.8611C17.5494 27.3437 16.5028 26.4663 15.7656 25.3397C15.0283 24.2131 14.6337 22.8879 14.6314 21.5317V21.1233L9.93921 19.1283Z" fill="#F06927"/>
<path d="M10.1673 16.095C10.2724 16.2049 10.4157 16.2678 10.5659 16.27H14.7228L17.3992 19.0116C17.811 18.3431 18.3784 17.7899 19.0506 17.4016L16.2375 14.5316V10.46C16.2354 10.3061 16.174 10.1593 16.0667 10.0516L9.70032 3.52997C9.62073 3.45003 9.51998 3.39577 9.41057 3.37393C9.30116 3.35209 9.1879 3.36362 9.08483 3.4071C8.98176 3.45057 8.89342 3.52408 8.83074 3.61851C8.76807 3.71293 8.73383 3.82413 8.73226 3.9383V8.60497H4.24504C4.13358 8.60657 4.02504 8.64165 3.93286 8.70585C3.84068 8.77005 3.76893 8.86055 3.72649 8.96614C3.68404 9.07172 3.67279 9.18774 3.69411 9.29982C3.71543 9.4119 3.76839 9.5151 3.84643 9.59663L10.1673 16.095Z" fill="#F06927"/>
</g>
<defs>
<clipPath id="clip0_685_5968">
<rect width="41" height="42" fill="white" transform="translate(0.828125 0.531616)"/>
</clipPath>
</defs>
</svg>
