<svg width="39" height="40" viewBox="0 0 39 40" fill="none" xmlns="http://www.w3.org/2000/svg">
<path d="M10.8333 6.41423C10.8333 7.41984 10.4339 8.38426 9.72278 9.09534C9.0117 9.80641 8.04728 10.2059 7.04167 10.2059C6.03605 10.2059 5.07163 9.80641 4.36055 9.09534C3.64948 8.38426 3.25 7.41984 3.25 6.41423C3.25 5.40861 3.64948 4.44419 4.36055 3.73311C5.07163 3.02204 6.03605 2.62256 7.04167 2.62256C8.04728 2.62256 9.0117 3.02204 9.72278 3.73311C10.4339 4.44419 10.8333 5.40861 10.8333 6.41423Z" stroke="#F06927" stroke-width="2"/>
<path d="M22.375 6.41423L18.5417 10.2476M11.8333 6.41423C11.8333 7.68505 11.3285 8.90383 10.4299 9.80245C9.53127 10.7011 8.3125 11.2059 7.04167 11.2059C5.77084 11.2059 4.55206 10.7011 3.65345 9.80245C2.75483 8.90383 2.25 7.68505 2.25 6.41423C2.25 5.1434 2.75483 3.92462 3.65345 3.02601C4.55206 2.12739 5.77084 1.62256 7.04167 1.62256C8.3125 1.62256 9.53127 2.12739 10.4299 3.02601C11.3285 3.92462 11.8333 5.1434 11.8333 6.41423V6.41423ZM11.8333 6.41423H22.375H11.8333ZM22.375 6.41423L18.5417 2.58089L22.375 6.41423Z" stroke="#F06927" stroke-width="2" stroke-linecap="round" stroke-linejoin="round"/>
<path d="M29.2775 35.9287C28.5665 35.2176 28.167 34.2532 28.167 33.2476C28.167 32.242 28.5665 31.2776 29.2775 30.5665C29.9886 29.8554 30.953 29.4559 31.9587 29.4559C32.9643 29.4559 33.9287 29.8554 34.6398 30.5665C35.3508 31.2776 35.7503 32.242 35.7503 33.2476C35.7503 34.2532 35.3508 35.2176 34.6398 35.9287C33.9287 36.6398 32.9643 37.0393 31.9587 37.0393C30.953 37.0393 29.9886 36.6398 29.2775 35.9287Z" stroke="#F06927" stroke-width="2"/>
<path d="M16.625 33.2476L20.4583 37.0809M27.1667 33.2476C27.1667 34.5184 27.6715 35.7372 28.5701 36.6358C29.4687 37.5344 30.6875 38.0393 31.9583 38.0393C33.2292 38.0393 34.4479 37.5344 35.3466 36.6358C36.2452 35.7372 36.75 34.5184 36.75 33.2476C36.75 31.9768 36.2452 30.758 35.3466 29.8594C34.4479 28.9608 33.2292 28.4559 31.9583 28.4559C30.6875 28.4559 29.4687 28.9608 28.5701 29.8594C27.6715 30.758 27.1667 31.9768 27.1667 33.2476ZM27.1667 33.2476H16.625H27.1667ZM16.625 33.2476L20.4583 29.4143L16.625 33.2476Z" stroke="#F06927" stroke-width="2" stroke-linecap="round" stroke-linejoin="round"/>
<path d="M31.4657 10.8756L31.083 11.7995L31.4657 10.8756C31.0056 10.6851 30.5876 10.4058 30.2356 10.0537C29.8835 9.70162 29.6042 9.28363 29.4136 8.82361C29.2231 8.36358 29.125 7.87053 29.125 7.3726C29.125 6.36699 29.5245 5.40256 30.2356 4.69149C30.9466 3.98041 31.9111 3.58093 32.9167 3.58093C33.9223 3.58093 34.8867 3.98041 35.5978 4.69149C36.3089 5.40256 36.7083 6.36699 36.7083 7.3726C36.7083 7.87053 36.6103 8.36358 36.4197 8.82361C36.2292 9.28363 35.9499 9.70163 35.5978 10.0537C35.2457 10.4058 34.8277 10.6851 34.3677 10.8756L34.7504 11.7995L34.3677 10.8756C33.9076 11.0662 33.4146 11.1643 32.9167 11.1643C32.4187 11.1643 31.9257 11.0662 31.4657 10.8756Z" stroke="#F06927" stroke-width="2"/>
<path d="M32.9167 22.7059L29.0833 18.8726M32.9167 12.1643C31.6458 12.1643 30.4271 11.6594 29.5284 10.7608C28.6298 9.86221 28.125 8.64343 28.125 7.3726C28.125 6.10177 28.6298 4.88299 29.5284 3.98438C30.4271 3.08577 31.6458 2.58093 32.9167 2.58093C34.1875 2.58093 35.4063 3.08577 36.3049 3.98438C37.2035 4.88299 37.7083 6.10177 37.7083 7.3726C37.7083 8.64343 37.2035 9.86221 36.3049 10.7608C35.4063 11.6594 34.1875 12.1643 32.9167 12.1643ZM32.9167 12.1643V22.7059V12.1643ZM32.9167 22.7059L36.75 18.8726L32.9167 22.7059Z" stroke="#F06927" stroke-width="2" stroke-linecap="round" stroke-linejoin="round"/>
<path d="M2.29199 32.2892C2.29199 31.2836 2.69147 30.3192 3.40255 29.6081C4.11362 28.897 5.07805 28.4976 6.08366 28.4976C7.08927 28.4976 8.0537 28.897 8.76477 29.6081C9.47585 30.3192 9.87533 31.2836 9.87533 32.2892C9.87533 33.2948 9.47585 34.2593 8.76477 34.9703C8.0537 35.6814 7.08927 36.0809 6.08366 36.0809C5.07805 36.0809 4.11362 35.6814 3.40255 34.9703C2.69147 34.2593 2.29199 33.2948 2.29199 32.2892Z" stroke="#F06927" stroke-width="2"/>
<path d="M6.08366 16.9559L2.25033 20.7893M6.08366 27.4976C4.81283 27.4976 3.59405 28.0024 2.69544 28.901C1.79683 29.7997 1.29199 31.0184 1.29199 32.2893C1.29199 33.5601 1.79683 34.7789 2.69544 35.6775C3.59405 36.5761 4.81283 37.0809 6.08366 37.0809C7.35449 37.0809 8.57327 36.5761 9.47188 35.6775C10.3705 34.7789 10.8753 33.5601 10.8753 32.2893C10.8753 31.0184 10.3705 29.7997 9.47188 28.901C8.57327 28.0024 7.35449 27.4976 6.08366 27.4976ZM6.08366 27.4976V16.9559V27.4976ZM6.08366 16.9559L9.91699 20.7893L6.08366 16.9559Z" stroke="#F06927" stroke-width="2" stroke-linecap="round" stroke-linejoin="round"/>
</svg>
