<svg width="70" height="70" viewBox="0 0 70 70" fill="none" xmlns="http://www.w3.org/2000/svg">
<path d="M52.4941 65.209L47.966 63.0527C44.3004 61.3277 41.7129 57.4465 41.7129 53.3496V39.334H63.2754V53.3496C63.2754 57.4465 60.9035 61.3277 57.0223 63.0527L52.4941 65.209ZM46.0254 43.6465V53.3496C46.0254 55.9371 47.5348 58.0934 49.691 59.1715L52.4941 60.4652L55.2973 59.1715C57.4535 58.0934 58.9629 55.7215 58.9629 53.3496V43.6465H46.0254Z" fill="#37B992"/>
<path d="M22.3066 52.2715C23.4975 52.2715 24.4629 51.3061 24.4629 50.1152C24.4629 48.9244 23.4975 47.959 22.3066 47.959C21.1158 47.959 20.1504 48.9244 20.1504 50.1152C20.1504 51.3061 21.1158 52.2715 22.3066 52.2715Z" fill="#37B992"/>
<path d="M22.3066 35.0215C23.4975 35.0215 24.4629 34.0561 24.4629 32.8652C24.4629 31.6744 23.4975 30.709 22.3066 30.709C21.1158 30.709 20.1504 31.6744 20.1504 32.8652C20.1504 34.0561 21.1158 35.0215 22.3066 35.0215Z" fill="#37B992"/>
<path d="M22.3066 17.7715C23.4975 17.7715 24.4629 16.8061 24.4629 15.6152C24.4629 14.4244 23.4975 13.459 22.3066 13.459C21.1158 13.459 20.1504 14.4244 20.1504 15.6152C20.1504 16.8061 21.1158 17.7715 22.3066 17.7715Z" fill="#37B992"/>
<path d="M50.3379 4.83398H15.8379C13.466 4.83398 11.5254 6.77461 11.5254 9.14648V56.584C11.5254 58.9559 13.466 60.8965 15.8379 60.8965H35.2441V56.584H15.8379V43.6465H35.2441V39.334H15.8379V26.3965H50.3379V32.8652H54.6504V9.14648C54.6504 6.77461 52.7098 4.83398 50.3379 4.83398ZM15.8379 22.084V9.14648H50.3379V22.084H15.8379Z" fill="#37B992"/>
</svg>
