<svg width="87" height="95" viewBox="0 0 87 95" fill="none" xmlns="http://www.w3.org/2000/svg">
<path d="M0.558594 13.2653C0.558594 6.28465 6.2175 0.625732 13.1981 0.625732H74.1075C81.0881 0.625732 86.747 6.28464 86.747 13.2653V81.7583C86.747 88.7389 81.0881 94.3978 74.1075 94.3978H13.1981C6.21749 94.3978 0.558594 88.7389 0.558594 81.7583V13.2653Z" fill="#37B992"/>
<path fill-rule="evenodd" clip-rule="evenodd" d="M43.6527 31.6124C34.8763 31.6124 27.7534 38.7353 27.7534 47.5117C27.7534 56.2881 34.8763 63.4109 43.6527 63.4109C52.4291 63.4109 59.5519 56.2881 59.5519 47.5117C59.5519 38.7353 52.4291 31.6124 43.6527 31.6124ZM51.4433 53.0605L49.2174 55.2864C48.8994 55.6044 48.4065 55.6044 48.0886 55.2864L42.6669 49.8648C40.7272 50.5484 38.4695 50.1351 36.9114 48.5769C36.0745 47.7359 35.5312 46.6474 35.3622 45.473C35.1932 44.2987 35.4075 43.1011 35.9733 42.0582L39.7097 45.7946L41.9514 43.5528L38.2151 39.8323C40.3138 38.7035 42.969 39.0056 44.7338 40.7704C46.2919 42.3285 46.7053 44.5862 46.0217 46.5259L51.4433 51.9476C51.7454 52.2497 51.7454 52.7584 51.4433 53.0605Z" fill="white"/>
</svg>
