<svg width="87" height="95" viewBox="0 0 87 95" fill="none" xmlns="http://www.w3.org/2000/svg">
<path d="M0.558594 13.2653C0.558594 6.28465 6.2175 0.625732 13.1981 0.625732H74.1075C81.0881 0.625732 86.747 6.28464 86.747 13.2653V81.7583C86.747 88.7389 81.0881 94.3978 74.1075 94.3978H13.1981C6.21749 94.3978 0.558594 88.7389 0.558594 81.7583V13.2653Z" fill="#37B992"/>
<path d="M39.8368 53.2356L42.0627 50.9302L38.6443 47.5119L42.0627 44.0935L39.8368 41.7881L34.113 47.5119L39.8368 53.2356ZM47.4684 53.2356L53.1921 47.5119L47.4684 41.7881L45.2425 44.0935L48.6608 47.5119L45.2425 50.9302L47.4684 53.2356ZM32.5231 61.8212C31.6487 61.8212 30.8998 61.5101 30.2765 60.8879C29.6544 60.2647 29.3433 59.5158 29.3433 58.6414V36.3824C29.3433 35.5079 29.6544 34.7591 30.2765 34.1358C30.8998 33.5137 31.6487 33.2026 32.5231 33.2026H39.2008C39.5453 32.2486 40.1219 31.4801 40.9306 30.8972C41.7383 30.3142 42.6456 30.0227 43.6526 30.0227C44.6595 30.0227 45.5674 30.3142 46.3761 30.8972C47.1838 31.4801 47.7599 32.2486 48.1044 33.2026H54.7821C55.6565 33.2026 56.4054 33.5137 57.0286 34.1358C57.6508 34.7591 57.9619 35.5079 57.9619 36.3824V58.6414C57.9619 59.5158 57.6508 60.2647 57.0286 60.8879C56.4054 61.5101 55.6565 61.8212 54.7821 61.8212H32.5231ZM43.6526 35.19C43.9971 35.19 44.2822 35.0771 44.508 34.8513C44.7327 34.6266 44.845 34.342 44.845 33.9975C44.845 33.653 44.7327 33.3679 44.508 33.1421C44.2822 32.9174 43.9971 32.8051 43.6526 32.8051C43.3081 32.8051 43.0235 32.9174 42.7988 33.1421C42.573 33.3679 42.4601 33.653 42.4601 33.9975C42.4601 34.342 42.573 34.6266 42.7988 34.8513C43.0235 35.0771 43.3081 35.19 43.6526 35.19Z" fill="white"/>
</svg>
