<svg width="185" height="185" viewBox="0 0 185 185" fill="none" xmlns="http://www.w3.org/2000/svg">
<circle cx="92.8464" cy="92.2035" r="89.6412" fill="#37B992" stroke="#F2F6FF" stroke-width="5"/>
<path d="M132.822 96.4118C131.629 96.4118 130.631 96.0078 129.825 95.1998C129.017 94.3946 128.613 93.3958 128.613 92.2035C128.613 91.0111 129.017 90.0109 129.825 89.2029C130.631 88.3977 131.629 87.9951 132.822 87.9951H141.238C142.431 87.9951 143.43 88.3977 144.235 89.2029C145.043 90.0109 145.447 91.0111 145.447 92.2035C145.447 93.3958 145.043 94.3946 144.235 95.1998C143.43 96.0078 142.431 96.4118 141.238 96.4118H132.822ZM130.297 123.345L123.563 118.295C122.582 117.594 122.02 116.682 121.88 115.56C121.74 114.437 122.02 113.385 122.722 112.403C123.423 111.422 124.335 110.86 125.457 110.72C126.579 110.58 127.632 110.86 128.613 111.562L135.347 116.612C136.329 117.313 136.89 118.225 137.03 119.347C137.17 120.469 136.89 121.522 136.188 122.503C135.487 123.485 134.575 124.047 133.453 124.187C132.331 124.327 131.279 124.047 130.297 123.345ZM128.613 72.8451C127.632 73.5465 126.579 73.8271 125.457 73.6868C124.335 73.5465 123.423 72.9854 122.722 72.0035C122.02 71.0215 121.74 69.9694 121.88 68.8472C122.02 67.725 122.582 66.8132 123.563 66.1118L130.297 61.0618C131.279 60.3604 132.331 60.0799 133.453 60.2201C134.575 60.3604 135.487 60.9215 136.188 61.9035C136.89 62.8854 137.17 63.9375 137.03 65.0597C136.89 66.1819 136.329 67.0937 135.347 67.7951L128.613 72.8451ZM73.9052 121.662V104.828H69.6968C67.3822 104.828 65.4015 104.004 63.7547 102.354C62.105 100.707 61.2802 98.7264 61.2802 96.4118V87.9951C61.2802 85.6805 62.105 83.6984 63.7547 82.0487C65.4015 80.4019 67.3822 79.5785 69.6968 79.5785H86.5302L101.154 70.741C102.557 69.8993 103.978 69.8993 105.417 70.741C106.854 71.5826 107.572 72.8101 107.572 74.4233V109.984C107.572 111.597 106.854 112.824 105.417 113.666C103.978 114.508 102.557 114.508 101.154 113.666L86.5302 104.828H82.3218V121.662H73.9052ZM111.78 106.301V78.1055C113.674 79.7889 115.2 81.8411 116.359 84.2623C117.515 86.6807 118.093 89.3278 118.093 92.2035C118.093 95.0792 117.515 97.7262 116.359 100.145C115.2 102.566 113.674 104.618 111.78 106.301Z" fill="#F2F6FF"/>
</svg>
