<svg width="185" height="185" viewBox="0 0 185 185" fill="none" xmlns="http://www.w3.org/2000/svg">
<circle cx="92.1534" cy="92.2035" r="89.6412" fill="#37B992" stroke="#F2F6FF" stroke-width="5"/>
<path d="M97.4888 59.9475C95.1025 59.9956 93.3888 60.46 92.2517 61.2928L76.6685 69.637L68.004 81.4229C66.1782 84.2416 67.4755 89.6869 73.1771 86.1955L79.4232 77.9635C87.3509 71.1264 103.527 74.2639 95.8552 87.9893C92.0915 95.933 93.8532 99.8088 98.706 101.442L100.916 94.0111C104.744 85.3947 111.887 83.8412 111.599 76.8904L128.767 78.1236L128.607 60.1717L97.4888 59.9475ZM88.8243 76.5061C86.0376 76.458 83.2989 77.6111 81.313 79.2768L75.0509 87.5088C76.7646 88.8701 78.4943 88.1334 80.2079 86.4838C82.2259 87.5088 83.7954 85.9233 85.0767 82.7522C85.6052 80.59 86.39 79.0686 88.8243 76.5061ZM76.0759 91.8811C76.0118 91.8811 75.9318 91.8811 75.8677 91.8971C75.3392 92.0092 74.7146 92.5697 74.2982 93.851C73.8657 95.1322 73.7696 96.958 74.154 98.9119C74.5384 100.85 75.3392 102.499 76.236 103.524C77.1009 104.533 77.9017 104.822 78.4302 104.71C78.9747 104.613 79.5833 104.037 79.9997 102.772C80.4321 101.49 80.5443 99.6486 80.1599 97.7108C79.7595 95.7568 78.9587 94.1072 78.0778 93.0983C77.3091 92.2014 76.6044 91.8811 76.0759 91.8811ZM89.3048 108.986C88.0396 109.002 86.454 109.402 84.9005 110.155C83.1228 111.036 81.7294 112.253 80.9767 113.374C80.2239 114.479 80.1599 115.312 80.4001 115.808C80.6403 116.289 81.345 116.753 82.6903 116.817C84.0357 116.897 85.8454 116.529 87.6232 115.648C89.4009 114.767 90.7943 113.566 91.547 112.445C92.2997 111.34 92.3638 110.491 92.1235 110.011C91.8833 109.514 91.1786 109.066 89.8333 109.002C89.6571 108.986 89.497 108.986 89.3048 108.986ZM73.6735 124.297C72.9208 124.313 72.2321 124.425 71.6235 124.601C70.2622 125.001 69.4775 125.722 69.2212 126.571C68.9489 127.436 69.2212 128.461 70.1341 129.566C71.063 130.655 72.6165 131.696 74.5384 132.272C76.4443 132.849 78.3021 132.833 79.6794 132.417C81.0568 132.016 81.8415 131.296 82.0978 130.447C82.354 129.582 82.0978 128.557 81.1689 127.452C80.256 126.363 78.7025 125.322 76.7806 124.745C75.6915 124.425 74.6345 124.281 73.6735 124.297Z" fill="white"/>
</svg>
