<svg width="185" height="185" viewBox="0 0 185 185" fill="none" xmlns="http://www.w3.org/2000/svg">
<circle cx="92.6154" cy="92.2035" r="89.6412" fill="#37B992" stroke="#F2F6FF" stroke-width="5"/>
<path d="M66.916 113.523H118.315C123.012 107.673 125.57 100.393 125.563 92.8898C125.563 74.7273 110.819 59.9419 92.6154 59.9419C74.4117 59.9419 59.6675 74.7273 59.6675 92.8898C59.6675 100.715 62.3857 107.84 66.916 113.523ZM88.4969 68.1789C88.4969 65.9137 90.3502 64.0604 92.6154 64.0604C94.8805 64.0604 96.7338 65.9137 96.7338 68.1789C96.7338 70.4852 94.8805 72.2974 92.6154 72.2974C90.3502 72.2974 88.4969 70.4852 88.4969 68.1789ZM67.9045 76.4158C67.9045 74.1507 69.7578 72.2974 72.0229 72.2974C74.2881 72.2974 76.1414 74.1507 76.1414 76.4158C76.1414 78.7222 74.2881 80.5343 72.0229 80.5343C69.7578 80.5343 67.9045 78.7222 67.9045 76.4158ZM86.52 90.4187C89.9795 87.0003 113.331 76.004 113.331 76.004C113.331 76.004 102.376 99.397 98.9578 102.815C95.4983 106.275 89.9795 106.275 86.52 102.815C84.8777 101.171 83.9553 98.9413 83.9553 96.617C83.9553 94.2927 84.8777 92.0634 86.52 90.4187ZM63.786 97.0083C63.786 94.7431 65.6393 92.8898 67.9045 92.8898C70.1696 92.8898 72.0229 94.7431 72.0229 97.0083C72.0229 99.3146 70.1696 101.127 67.9045 101.127C65.6393 101.127 63.786 99.3146 63.786 97.0083ZM88.4969 97.0083C88.4969 94.7431 90.3502 92.8898 92.6154 92.8898C94.8805 92.8898 96.7338 94.7431 96.7338 97.0083C96.7338 99.3146 94.8805 101.127 92.6154 101.127C90.3502 101.127 88.4969 99.3146 88.4969 97.0083ZM113.208 97.0083C113.208 94.7431 115.061 92.8898 117.326 92.8898C119.591 92.8898 121.445 94.7431 121.445 97.0083C121.445 99.3146 119.591 101.127 117.326 101.127C115.061 101.127 113.208 99.3146 113.208 97.0083Z" fill="white"/>
</svg>
