<svg width="185" height="185" viewBox="0 0 185 185" fill="none" xmlns="http://www.w3.org/2000/svg">
<circle cx="92.3844" cy="92.2035" r="89.6412" fill="#37B992" stroke="#F2F6FF" stroke-width="5"/>
<path fill-rule="evenodd" clip-rule="evenodd" d="M89.0927 79.8682V93.4207C86.8956 94.1874 85.0437 95.6963 83.8644 97.6808C82.6851 99.6653 82.2544 101.997 82.6483 104.265C83.0422 106.533 84.2355 108.59 86.0171 110.073C87.7988 111.556 90.0541 112.37 92.3844 112.37C94.7148 112.37 96.9701 111.556 98.7517 110.073C100.533 108.59 101.727 106.533 102.121 104.265C102.514 101.997 102.084 99.6653 100.904 97.6808C99.7251 95.6963 97.8732 94.1874 95.6761 93.4207V79.8682H89.0927ZM89.0927 102.618C89.0927 101.756 89.4395 100.93 90.0569 100.32C90.6742 99.7106 91.5114 99.3682 92.3844 99.3682C93.2574 99.3682 94.0947 99.7106 94.712 100.32C95.3293 100.93 95.6761 101.756 95.6761 102.618C95.6761 103.48 95.3293 104.307 94.712 104.916C94.0947 105.526 93.2574 105.868 92.3844 105.868C91.5114 105.868 90.6742 105.526 90.0569 104.916C89.4395 104.307 89.0927 103.48 89.0927 102.618Z" fill="white"/>
<path d="M92.3844 66.8682C98.4955 66.8682 104.356 69.265 108.677 73.5315C112.999 77.7979 115.426 83.5845 115.426 89.6182V92.8682H108.843V89.6182C108.843 85.3084 107.109 81.1751 104.022 78.1277C100.936 75.0802 96.7495 73.3682 92.3844 73.3682C88.0194 73.3682 83.8332 75.0802 80.7466 78.1277C77.6601 81.1751 75.9261 85.3084 75.9261 89.6182V92.8682H69.3428V89.6182C69.3428 83.5845 71.7704 77.7979 76.0915 73.5315C80.4127 69.265 86.2734 66.8682 92.3844 66.8682Z" fill="white"/>
<path fill-rule="evenodd" clip-rule="evenodd" d="M92.3844 125.368C112.381 125.368 128.593 109.362 128.593 89.6182C128.593 69.8744 112.381 53.8682 92.3844 53.8682C72.3875 53.8682 56.176 69.8744 56.176 89.6182C56.176 109.362 72.3875 125.368 92.3844 125.368ZM92.3844 118.868C96.2748 118.868 100.127 118.112 103.721 116.642C107.316 115.172 110.581 113.017 113.332 110.301C116.083 107.585 118.265 104.36 119.754 100.812C121.243 97.2629 122.009 93.4593 122.009 89.6182C122.009 85.777 121.243 81.9734 119.754 78.4247C118.265 74.8759 116.083 71.6514 113.332 68.9353C110.581 66.2192 107.316 64.0646 103.721 62.5947C100.127 61.1247 96.2748 60.3682 92.3844 60.3682C84.5273 60.3682 76.9921 63.4499 71.4363 68.9353C65.8806 74.4207 62.7594 81.8606 62.7594 89.6182C62.7594 97.3757 65.8806 104.816 71.4363 110.301C76.9921 115.786 84.5273 118.868 92.3844 118.868Z" fill="white"/>
</svg>
