<svg width="197" height="34" viewBox="0 0 197 34" fill="none" xmlns="http://www.w3.org/2000/svg">
<path d="M190.421 0.742676H196.455V21.4676L190.421 16.0799V0.742676Z" fill="#37B992"/>
<path d="M196.455 6.77649L196.455 0.742716L175.73 0.742716L182.404 6.77649L196.455 6.77649Z" fill="#37B992"/>
<path d="M148.945 15.7516H145.784V21.556H149.009C149.912 21.556 150.654 21.2873 151.234 20.7499C151.815 20.1909 152.105 19.4815 152.105 18.6216C152.105 17.6542 151.825 16.934 151.266 16.461C150.707 15.9881 149.933 15.7516 148.945 15.7516ZM139.915 33.0681V11.1403H149.138C151.567 11.1403 153.674 11.7315 155.458 12.9139C157.264 14.0748 158.167 15.9773 158.167 18.6216C158.167 19.9544 157.888 21.1046 157.329 22.072C156.791 23.0394 156.082 23.824 155.2 24.426L160.037 33.0681H153.233L149.686 26.1673H145.784V33.0681H139.915ZM158.428 22.201C158.428 18.8258 159.385 16.0633 161.298 13.9135C163.212 11.7638 165.813 10.6889 169.102 10.6889C172.671 10.6889 175.347 11.7853 177.132 13.978C178.916 16.1708 179.808 18.8365 179.808 21.9752C179.808 25.3719 178.862 28.1451 176.97 30.2949C175.078 32.4447 172.456 33.5196 169.102 33.5196C165.598 33.5196 162.943 32.4232 161.137 30.2304C159.331 28.0161 158.428 25.3396 158.428 22.201ZM164.459 22.1687C164.459 24.0175 164.813 25.5546 165.523 26.78C166.232 28.0054 167.414 28.6181 169.07 28.6181C170.575 28.6181 171.736 28.0699 172.552 26.9735C173.369 25.8556 173.778 24.1895 173.778 21.9752C173.778 20.1479 173.412 18.6323 172.681 17.4284C171.972 16.2031 170.8 15.5904 169.167 15.5904C167.705 15.5904 166.555 16.1923 165.716 17.3962C164.878 18.6001 164.459 20.1909 164.459 22.1687ZM180.136 33.0681V11.1403H186.005V33.0681H180.136Z" fill="#37B992"/>
<path d="M4.4342 26.2677C4.4342 26.827 4.66057 27.333 5.11331 27.7858C5.56605 28.2119 6.16527 28.4249 6.91096 28.4249C7.63002 28.4249 8.34908 28.2651 9.06814 27.9455C9.81383 27.626 10.5196 27.1466 11.1854 26.5074V23.5513H7.27049C6.36501 23.5513 5.65926 23.8309 5.15326 24.3902C4.67389 24.9495 4.4342 25.5753 4.4342 26.2677ZM6.99085 32.5395C4.62062 32.5395 2.86292 31.9669 1.71775 30.8218C0.572584 29.65 0 28.132 0 26.2677C0 24.2703 0.679112 22.739 2.03734 21.6737C3.39556 20.6085 5.16657 20.0758 7.35038 20.0758H11.1454C11.1188 19.0905 10.8258 18.3315 10.2666 17.7988C9.73393 17.2395 8.98824 16.9599 8.0295 16.9599C7.12401 16.9599 6.13864 17.0931 5.07336 17.3594C4.00809 17.5991 3.11592 17.892 2.39686 18.2382L0.998694 13.9239C1.74438 13.4179 2.87624 13.0051 4.39425 12.6855C5.9389 12.3393 7.12401 12.1662 7.9496 12.1662C10.2666 12.1662 12.2506 12.8453 13.9018 14.2035C15.553 15.5351 16.3786 17.2395 16.3786 19.3168V32.0602H13.7021L12.4237 30.4223C11.7047 30.9816 10.8525 31.4743 9.86709 31.9004C8.90835 32.3265 7.9496 32.5395 6.99085 32.5395Z" fill="#FCFCFC"/>
<path d="M27.6322 16.3607C25.8212 16.3607 24.5562 16.9999 23.8372 18.2782C23.1447 19.5565 22.7985 20.8748 22.7985 22.233C22.7985 23.751 23.1181 25.1093 23.7573 26.3077C24.3964 27.5061 25.6881 28.1053 27.6322 28.1053C28.2447 28.1053 28.8839 27.9722 29.5497 27.7059C30.2421 27.4129 30.8813 27.08 31.4672 26.7072V17.7589C30.8813 17.3594 30.2421 17.0265 29.5497 16.7602C28.8839 16.4939 28.2447 16.3607 27.6322 16.3607ZM36.7003 3.85706V32.0602H33.9839L32.5458 30.1826C31.6669 30.9283 30.6283 31.5142 29.4298 31.9403C28.258 32.3398 27.1928 32.5395 26.234 32.5395C23.411 32.5395 21.2405 31.5542 19.7225 29.5834C18.2045 27.6126 17.4455 25.1625 17.4455 22.233C17.4455 19.3035 18.2445 16.8534 19.8424 14.8826C21.4669 12.9119 23.6774 11.9265 26.4737 11.9265C27.1928 11.9265 28.005 12.0597 28.9105 12.326C29.816 12.5657 30.6682 12.9119 31.4672 13.3646V4.29648L36.7003 3.85706Z" fill="#FCFCFC"/>
<path d="M44.1658 32.0602L36.7355 13.4046L42.0885 12.6855L46.5626 24.4301L50.7971 12.6855H56.2699L48.6399 32.0602H44.1658Z" fill="#FCFCFC"/>
<path d="M66.0605 32.5395C62.7048 32.5395 60.055 31.6207 58.1109 29.7831C56.1934 27.9455 55.2346 25.4821 55.2346 22.3928C55.2346 19.3035 56.1002 16.8268 57.8312 14.9625C59.5889 13.0983 61.9725 12.1662 64.9819 12.1662C68.0179 12.1662 70.2417 13.1782 71.6531 15.2022C73.0913 17.1996 73.8103 19.5698 73.8103 22.3129V23.9108H60.7474C60.9871 25.1891 61.573 26.2145 62.5051 26.9868C63.4372 27.7325 64.6623 28.1053 66.1803 28.1053C67.0591 28.1053 67.8448 27.9988 68.5372 27.7858C69.2563 27.5461 70.0819 27.2132 71.014 26.7871L72.532 30.5421C71.6265 31.2346 70.5213 31.7406 69.2163 32.0602C67.938 32.3797 66.886 32.5395 66.0605 32.5395ZM68.8967 20.4354C68.6304 19.1304 68.1511 18.1717 67.4586 17.5591C66.7662 16.92 65.9007 16.6004 64.862 16.6004C63.7967 16.6004 62.9046 16.9333 62.1855 17.5991C61.4665 18.2382 61.0004 19.1837 60.7874 20.4354H68.8967Z" fill="#FCFCFC"/>
<path d="M83.1883 13.1884L84.3976 17.1806C83.4354 17.5837 83.1753 17.7918 82.6191 18.0805C81.4913 18.7281 81.2009 18.8508 80.0823 19.8362V32.0602H74.8891V12.6855H77.6056L79.3233 15.5218C80.1223 14.8294 80.1966 14.5416 81.3418 13.9557C82.4869 13.3431 82.6191 13.3445 83.1883 13.1884Z" fill="#FCFCFC"/>
<path d="M98.2778 31.6607C97.8517 32.0069 97.2391 32.2865 96.4402 32.4996C95.6679 32.7393 94.9754 32.8591 94.3629 32.8591C91.966 32.8591 90.0752 32.2599 88.6903 31.0615C87.3321 29.8364 86.653 28.1053 86.653 25.8683V16.7202H85.3339L84.3165 12.7255H86.653V8.13146L91.8063 7.21267V12.7255H95.3216L96.9196 16.7202H91.8063V24.9495C91.8063 25.9615 92.0459 26.8004 92.5253 27.4662C93.0047 28.1053 93.7104 28.4249 94.6425 28.4249C94.9888 28.4249 95.335 28.385 95.6812 28.3051C96.0274 28.2252 96.3869 28.092 96.7598 27.9056L98.2778 31.6607Z" fill="#FCFCFC"/>
<path d="M100.841 4.09674C101.666 4.09674 102.359 4.37638 102.918 4.93564C103.504 5.49491 103.797 6.18734 103.797 7.01293C103.797 7.83851 103.504 8.53094 102.918 9.09021C102.359 9.64948 101.666 9.92911 100.841 9.92911C100.042 9.92911 99.3625 9.64948 98.8032 9.09021C98.244 8.53094 97.9643 7.83851 97.9643 7.01293C97.9643 6.18734 98.244 5.49491 98.8032 4.93564C99.3625 4.37638 100.042 4.09674 100.841 4.09674ZM103.437 12.6855V32.0602H98.244V12.6855H103.437Z" fill="#FCFCFC"/>
<path d="M116.937 17.9187C116.005 17.4925 115.14 17.173 114.341 16.9599C113.542 16.7202 112.689 16.6004 111.784 16.6004C111.118 16.6004 110.599 16.7335 110.226 16.9999C109.88 17.2395 109.707 17.5858 109.707 18.0385C109.707 18.3581 109.92 18.6643 110.346 18.9573C110.799 19.2502 111.518 19.5698 112.503 19.916C114.128 20.5019 115.632 21.3275 117.017 22.3928C118.402 23.4314 119.094 24.7897 119.094 26.4675C119.094 28.385 118.402 29.8763 117.017 30.9416C115.659 32.0069 113.662 32.5395 111.025 32.5395C110.199 32.5395 109.094 32.3797 107.709 32.0602C106.351 31.7406 105.219 31.2346 104.314 30.5421L105.872 26.7871C106.804 27.2132 107.696 27.5461 108.548 27.7858C109.427 27.9988 110.226 28.1053 110.945 28.1053C111.904 28.1053 112.636 27.9722 113.142 27.7059C113.648 27.4395 113.901 27.0933 113.901 26.6672C113.901 26.1346 113.648 25.6552 113.142 25.2291C112.636 24.803 111.837 24.4168 110.745 24.0706C109.201 23.5646 107.736 22.8455 106.351 21.9134C104.993 20.9547 104.314 19.6764 104.314 18.0785C104.314 16.2409 104.993 14.8027 106.351 13.7641C107.709 12.6988 109.547 12.1662 111.864 12.1662C112.689 12.1662 113.755 12.3393 115.06 12.6855C116.365 13.0317 117.51 13.5377 118.495 14.2035L116.937 17.9187Z" fill="#FCFCFC"/>
<path d="M129.909 32.5395C126.554 32.5395 123.904 31.6207 121.96 29.7831C120.042 27.9455 119.083 25.4821 119.083 22.3928C119.083 19.3035 119.949 16.8268 121.68 14.9625C123.438 13.0983 125.821 12.1662 128.831 12.1662C131.867 12.1662 134.09 13.1782 135.502 15.2022C136.94 17.1996 137.659 19.5698 137.659 22.3129V23.9108H124.596C124.836 25.1891 125.422 26.2145 126.354 26.9868C127.286 27.7325 128.511 28.1053 130.029 28.1053C130.908 28.1053 131.694 27.9988 132.386 27.7858C133.105 27.5461 133.931 27.2132 134.863 26.7871L136.381 30.5421C135.475 31.2346 134.37 31.7406 133.065 32.0602C131.787 32.3797 130.735 32.5395 129.909 32.5395ZM132.746 20.4354C132.479 19.1304 132 18.1717 131.307 17.5591C130.615 16.92 129.749 16.6004 128.711 16.6004C127.646 16.6004 126.753 16.9333 126.034 17.5991C125.315 18.2382 124.849 19.1837 124.636 20.4354H132.746Z" fill="#FCFCFC"/>
</svg>
