<svg width="203" height="37" viewBox="0 0 203 37" fill="none" xmlns="http://www.w3.org/2000/svg">
<path d="M196.442 0.443848H202.555V21.4411L196.442 15.9826V0.443848Z" fill="#37B992"/>
<path d="M202.555 6.55688L202.555 0.44383L181.557 0.44383L188.319 6.55688L202.555 6.55688Z" fill="#37B992"/>
<path d="M150.74 16.741H147.435V22.8119H150.808C151.752 22.8119 152.528 22.5309 153.135 21.9687C153.742 21.3841 154.045 20.6421 154.045 19.7428C154.045 18.7309 153.753 17.9777 153.168 17.483C152.584 16.9884 151.774 16.741 150.74 16.741ZM141.296 34.8525V11.918H150.942C153.483 11.918 155.687 12.5364 157.553 13.773C159.442 14.9872 160.386 16.9771 160.386 19.7428C160.386 21.1368 160.094 22.3397 159.509 23.3516C158.947 24.3634 158.205 25.1841 157.283 25.8136L162.342 34.8525H155.226L151.516 27.6349H147.435V34.8525H141.296ZM160.659 23.4865C160.659 19.9564 161.66 17.0671 163.661 14.8186C165.662 12.5701 168.383 11.4459 171.823 11.4459C175.555 11.4459 178.355 12.5926 180.221 14.886C182.087 17.1795 183.02 19.9676 183.02 23.2504C183.02 26.803 182.031 29.7035 180.052 31.952C178.074 34.2005 175.331 35.3247 171.823 35.3247C168.158 35.3247 165.381 34.178 163.492 31.8845C161.604 29.5686 160.659 26.7693 160.659 23.4865ZM166.966 23.4527C166.966 25.3864 167.337 26.9941 168.079 28.2757C168.821 29.5574 170.058 30.1982 171.789 30.1982C173.363 30.1982 174.577 29.6248 175.432 28.4781C176.286 27.3089 176.713 25.5663 176.713 23.2504C176.713 21.3392 176.331 19.754 175.567 18.4948C174.825 17.2132 173.599 16.5724 171.89 16.5724C170.361 16.5724 169.159 17.202 168.282 18.4611C167.405 19.7203 166.966 21.3841 166.966 23.4527ZM183.363 34.8525V11.918H189.502V34.8525H183.363Z" fill="#37B992"/>
<path d="M4.95535 29.4547C4.95535 30.0213 5.1847 30.5339 5.64339 30.9926C6.10208 31.4243 6.70917 31.6402 7.46466 31.6402C8.19316 31.6402 8.92167 31.4783 9.65018 31.1545C10.4057 30.8307 11.1207 30.3451 11.7952 29.6975V26.7025H7.82891C6.91153 26.7025 6.19651 26.9858 5.68386 27.5525C5.19819 28.1191 4.95535 28.7531 4.95535 29.4547ZM7.5456 35.8089C5.14423 35.8089 3.36343 35.2288 2.20321 34.0685C1.043 32.8813 0.462891 31.3434 0.462891 29.4547C0.462891 27.431 1.15093 25.8796 2.527 24.8003C3.90307 23.721 5.69735 23.1814 7.90986 23.1814H11.7548C11.7278 22.1831 11.431 21.4141 10.8644 20.8745C10.3247 20.3078 9.56923 20.0245 8.59789 20.0245C7.68051 20.0245 6.68219 20.1594 5.60292 20.4293C4.52365 20.6721 3.61976 20.9689 2.89125 21.3197L1.47471 16.9486C2.2302 16.436 3.37692 16.0177 4.91488 15.694C6.47982 15.3432 7.68051 15.1678 8.51695 15.1678C10.8644 15.1678 12.8745 15.8559 14.5474 17.2319C16.2202 18.581 17.0567 20.3078 17.0567 22.4124V35.3232H14.345L13.0499 33.6638C12.3214 34.2304 11.458 34.7296 10.4596 35.1613C9.48829 35.593 8.51695 35.8089 7.5456 35.8089Z" fill="#212A4B"/>
<path d="M28.4582 19.4174C26.6234 19.4174 25.3418 20.065 24.6133 21.3601C23.9117 22.6553 23.561 23.9909 23.561 25.3669C23.561 26.9049 23.8847 28.281 24.5323 29.4951C25.1799 30.7093 26.4885 31.3164 28.4582 31.3164C29.0787 31.3164 29.7263 31.1815 30.4008 30.9117C31.1024 30.6149 31.7499 30.2776 32.3435 29.8999V20.834C31.7499 20.4293 31.1024 20.092 30.4008 19.8222C29.7263 19.5524 29.0787 19.4174 28.4582 19.4174ZM37.6454 6.74951V35.3232H34.8933L33.4363 33.421C32.5459 34.1765 31.4936 34.7701 30.2794 35.2018C29.0922 35.6065 28.013 35.8089 27.0416 35.8089C24.1815 35.8089 21.9825 34.8105 20.4446 32.8139C18.9066 30.8172 18.1376 28.3349 18.1376 25.3669C18.1376 22.3989 18.9471 19.9166 20.566 17.92C22.2119 15.9233 24.4514 14.925 27.2844 14.925C28.013 14.925 28.8359 15.0599 29.7533 15.3297C30.6707 15.5725 31.5341 15.9233 32.3435 16.382V7.19471L37.6454 6.74951Z" fill="#212A4B"/>
<path d="M45.209 35.3232L37.6811 16.4225L43.1044 15.694L47.6373 27.5929L51.9274 15.694H57.4722L49.7419 35.3232H45.209Z" fill="#212A4B"/>
<path d="M67.3913 35.8089C63.9916 35.8089 61.307 34.878 59.3373 33.0163C57.3946 31.1545 56.4233 28.6587 56.4233 25.5288C56.4233 22.3989 57.3002 19.8896 59.054 18.0009C60.8348 16.1122 63.2496 15.1678 66.2986 15.1678C69.3745 15.1678 71.6275 16.1931 73.0575 18.2437C74.5145 20.2674 75.243 22.6688 75.243 25.4479V27.0668H62.0085C62.2513 28.3619 62.8449 29.4007 63.7893 30.1832C64.7337 30.9387 65.9748 31.3164 67.5128 31.3164C68.4032 31.3164 69.1991 31.2085 69.9007 30.9926C70.6292 30.7498 71.4656 30.4125 72.41 29.9808L73.9479 33.7852C73.0305 34.4868 71.9108 34.9994 70.5887 35.3232C69.2936 35.647 68.2278 35.8089 67.3913 35.8089ZM70.2649 23.5457C69.9951 22.2236 69.5094 21.2522 68.8079 20.6316C68.1064 19.9841 67.2295 19.6603 66.1772 19.6603C65.0979 19.6603 64.194 19.9976 63.4655 20.6721C62.737 21.3197 62.2648 22.2775 62.049 23.5457H70.2649Z" fill="#212A4B"/>
<path d="M84.7442 16.2035L85.9695 20.2481C84.9946 20.6566 84.7311 20.8673 84.1676 21.1598C83.0249 21.8159 82.7307 21.9402 81.5975 22.9386V35.3232H76.336V15.694H79.0882L80.8285 18.5675C81.6379 17.866 81.7132 17.5744 82.8734 16.9808C84.0337 16.3602 84.1676 16.3616 84.7442 16.2035Z" fill="#212A4B"/>
<path d="M100.032 34.9185C99.6003 35.2692 98.9797 35.5525 98.1703 35.7684C97.3878 36.0112 96.6863 36.1327 96.0657 36.1327C93.6373 36.1327 91.7216 35.5256 90.3186 34.3114C88.9425 33.0702 88.2545 31.3164 88.2545 29.0499V19.7817H86.9181L85.8872 15.7344H88.2545V11.0801L93.4754 10.1492V15.7344H97.037L98.6559 19.7817H93.4754V28.1191C93.4754 29.1444 93.7183 29.9943 94.2039 30.6688C94.6896 31.3164 95.4046 31.6402 96.349 31.6402C96.6998 31.6402 97.0505 31.5997 97.4013 31.5188C97.7521 31.4378 98.1163 31.3029 98.494 31.114L100.032 34.9185Z" fill="#212A4B"/>
<path d="M102.628 6.99235C103.465 6.99235 104.166 7.27566 104.733 7.84227C105.327 8.40889 105.623 9.11042 105.623 9.94685C105.623 10.7833 105.327 11.4848 104.733 12.0514C104.166 12.618 103.465 12.9014 102.628 12.9014C101.819 12.9014 101.131 12.618 100.564 12.0514C99.9978 11.4848 99.7144 10.7833 99.7144 9.94685C99.7144 9.11042 99.9978 8.40889 100.564 7.84227C101.131 7.27566 101.819 6.99235 102.628 6.99235ZM105.259 15.694V35.3232H99.9977V15.694H105.259Z" fill="#212A4B"/>
<path d="M118.937 20.9959C117.992 20.5642 117.115 20.2404 116.306 20.0245C115.496 19.7817 114.633 19.6603 113.716 19.6603C113.041 19.6603 112.515 19.7952 112.137 20.065C111.786 20.3078 111.611 20.6586 111.611 21.1173C111.611 21.4411 111.827 21.7514 112.259 22.0482C112.717 22.345 113.446 22.6688 114.444 23.0195C116.09 23.6131 117.615 24.4495 119.018 25.5288C120.421 26.5811 121.122 27.9572 121.122 29.657C121.122 31.5997 120.421 33.1107 119.018 34.19C117.642 35.2692 115.618 35.8089 112.947 35.8089C112.11 35.8089 110.99 35.647 109.587 35.3232C108.211 34.9994 107.065 34.4868 106.147 33.7852L107.726 29.9808C108.67 30.4125 109.574 30.7498 110.437 30.9926C111.328 31.2085 112.137 31.3164 112.866 31.3164C113.837 31.3164 114.579 31.1815 115.092 30.9117C115.604 30.6419 115.861 30.2911 115.861 29.8594C115.861 29.3198 115.604 28.8341 115.092 28.4024C114.579 27.9707 113.77 27.5794 112.663 27.2287C111.098 26.716 109.614 25.9875 108.211 25.0431C106.835 24.0718 106.147 22.7767 106.147 21.1578C106.147 19.296 106.835 17.839 108.211 16.7867C109.587 15.7075 111.449 15.1678 113.797 15.1678C114.633 15.1678 115.712 15.3432 117.034 15.694C118.357 16.0447 119.517 16.5574 120.515 17.2319L118.937 20.9959Z" fill="#212A4B"/>
<path d="M132.079 35.8089C128.679 35.8089 125.995 34.878 124.025 33.0163C122.082 31.1545 121.111 28.6587 121.111 25.5288C121.111 22.3989 121.988 19.8896 123.742 18.0009C125.522 16.1122 127.937 15.1678 130.986 15.1678C134.062 15.1678 136.315 16.1931 137.745 18.2437C139.202 20.2674 139.931 22.6688 139.931 25.4479V27.0668H126.696C126.939 28.3619 127.533 29.4007 128.477 30.1832C129.421 30.9387 130.663 31.3164 132.2 31.3164C133.091 31.3164 133.887 31.2085 134.588 30.9926C135.317 30.7498 136.153 30.4125 137.098 29.9808L138.636 33.7852C137.718 34.4868 136.598 34.9994 135.276 35.3232C133.981 35.647 132.915 35.8089 132.079 35.8089ZM134.953 23.5457C134.683 22.2236 134.197 21.2522 133.496 20.6316C132.794 19.9841 131.917 19.6603 130.865 19.6603C129.786 19.6603 128.882 19.9976 128.153 20.6721C127.425 21.3197 126.953 22.2775 126.737 23.5457H134.953Z" fill="#212A4B"/>
</svg>
