<svg width="38" height="38" viewBox="0 0 38 38" fill="none" xmlns="http://www.w3.org/2000/svg">
<path d="M4.31258 16.3361C5.39414 16.3361 6.27091 15.4593 6.27091 14.3778C6.27091 13.2962 5.39414 12.4194 4.31258 12.4194C3.23102 12.4194 2.35425 13.2962 2.35425 14.3778C2.35425 15.4593 3.23102 16.3361 4.31258 16.3361Z" stroke="#37B992" stroke-width="4" stroke-linecap="round" stroke-linejoin="round"/>
<path d="M14.1043 6.5446C15.1859 6.5446 16.0627 5.66782 16.0627 4.58626C16.0627 3.50471 15.1859 2.62793 14.1043 2.62793C13.0228 2.62793 12.146 3.50471 12.146 4.58626C12.146 5.66782 13.0228 6.5446 14.1043 6.5446Z" stroke="#37B992" stroke-width="4" stroke-linecap="round" stroke-linejoin="round"/>
<path d="M14.1043 26.1281C15.1859 26.1281 16.0627 25.2513 16.0627 24.1698C16.0627 23.0882 15.1859 22.2114 14.1043 22.2114C13.0228 22.2114 12.146 23.0882 12.146 24.1698C12.146 25.2513 13.0228 26.1281 14.1043 26.1281Z" stroke="#37B992" stroke-width="4" stroke-linecap="round" stroke-linejoin="round"/>
<path d="M4.31258 35.9196C5.39414 35.9196 6.27091 35.0428 6.27091 33.9613C6.27091 32.8797 5.39414 32.0029 4.31258 32.0029C3.23102 32.0029 2.35425 32.8797 2.35425 33.9613C2.35425 35.0428 3.23102 35.9196 4.31258 35.9196Z" stroke="#37B992" stroke-width="4" stroke-linecap="round" stroke-linejoin="round"/>
<path d="M23.8958 16.3361C24.9774 16.3361 25.8542 15.4593 25.8542 14.3778C25.8542 13.2962 24.9774 12.4194 23.8958 12.4194C22.8143 12.4194 21.9375 13.2962 21.9375 14.3778C21.9375 15.4593 22.8143 16.3361 23.8958 16.3361Z" stroke="#37B992" stroke-width="4" stroke-linecap="round" stroke-linejoin="round"/>
<path d="M33.6876 6.5446C34.7691 6.5446 35.6459 5.66782 35.6459 4.58626C35.6459 3.50471 34.7691 2.62793 33.6876 2.62793C32.606 2.62793 31.7292 3.50471 31.7292 4.58626C31.7292 5.66782 32.606 6.5446 33.6876 6.5446Z" stroke="#37B992" stroke-width="4" stroke-linecap="round" stroke-linejoin="round"/>
<path d="M23.8958 35.9196C24.9774 35.9196 25.8542 35.0428 25.8542 33.9613C25.8542 32.8797 24.9774 32.0029 23.8958 32.0029C22.8143 32.0029 21.9375 32.8797 21.9375 33.9613C21.9375 35.0428 22.8143 35.9196 23.8958 35.9196Z" stroke="#37B992" stroke-width="4" stroke-linecap="round" stroke-linejoin="round"/>
<path d="M33.6876 26.1281C34.7691 26.1281 35.6459 25.2513 35.6459 24.1698C35.6459 23.0882 34.7691 22.2114 33.6876 22.2114C32.606 22.2114 31.7292 23.0882 31.7292 24.1698C31.7292 25.2513 32.606 26.1281 33.6876 26.1281Z" stroke="#37B992" stroke-width="4" stroke-linecap="round" stroke-linejoin="round"/>
</svg>
