<svg width="517" height="498" viewBox="0 0 517 498" fill="none" xmlns="http://www.w3.org/2000/svg">
<path opacity="0.07" d="M453.756 251.451C453.756 343.349 400.098 386.753 333.944 348.507C267.79 310.26 214.199 204.698 214.199 112.867C214.199 20.9689 267.857 -22.4348 334.011 15.8114C400.164 54.0576 453.756 159.553 453.756 251.451Z" fill="url(#paint0_linear_685_10880)"/>
<path opacity="0.4" d="M279.618 58.2105C263.848 49.1011 248.278 44.4124 233.778 44.3454C219.277 44.2785 206.046 48.9002 194.887 57.9426C183.728 66.9851 174.907 80.1803 168.893 96.8586C162.879 113.537 159.739 133.43 159.739 155.266L279.551 224.525L279.618 58.2105Z" fill="url(#paint1_linear_685_10880)"/>
<path opacity="0.2" d="M186.468 132.225C186.468 165.112 193.484 201.349 206.648 236.313C219.812 271.278 238.522 303.428 260.373 328.68C282.223 353.932 306.346 371.146 329.6 378.179C352.854 385.212 374.171 381.729 390.943 368.132C407.715 354.535 419.075 331.494 423.753 301.955C428.363 272.349 426.024 237.519 416.937 201.885C407.849 166.251 392.547 131.354 372.834 101.681C353.122 72.0087 330.001 48.8332 306.279 35.1691V201.55L186.468 132.225Z" fill="url(#paint2_linear_685_10880)"/>
<path opacity="0.3" d="M220.213 115.345L21.417 0.338867L21.4838 104.227L202.772 209.119L220.346 235.175L220.213 115.345Z" fill="url(#paint3_linear_685_10880)"/>
<path d="M0.234375 40.7955V12.5964L75.2755 56.0002V84.1993L0.234375 40.7955Z" fill="#FF8B02"/>
<path d="M0.234375 40.7955V12.5964L75.2755 56.0002V84.1993L0.234375 40.7955Z" fill="#F06927"/>
<path opacity="0.15" d="M169.094 111.059L125.526 85.8738V94.9832L169.094 120.168V111.059Z" fill="#153B7C"/>
<path opacity="0.15" d="M169.16 129.344L85.165 80.7831V89.8925L169.16 138.454V129.344Z" fill="#153B7C"/>
<path opacity="0.15" d="M169.161 147.563L67.3906 88.7539V97.8633L169.161 156.74V147.563Z" fill="#153B7C"/>
<path d="M179.852 126.799C179.852 135.373 184.93 145.219 191.145 148.836C197.359 152.453 202.438 148.434 202.438 139.86C202.438 131.287 197.359 121.441 191.145 117.824C184.863 114.207 179.852 118.226 179.852 126.799Z" fill="#FF8B02"/>
<path d="M179.852 126.799C179.852 135.373 184.93 145.219 191.145 148.836C197.359 152.453 202.438 148.434 202.438 139.86C202.438 131.287 197.359 121.441 191.145 117.824C184.863 114.207 179.852 118.226 179.852 126.799Z" fill="#F06927"/>
<path opacity="0.3" d="M300.199 276.033L499.061 391.107L499.128 494.995L317.84 390.102L300.332 395.862L300.199 276.033Z" fill="url(#paint4_linear_685_10880)"/>
<path d="M441.193 409.393V381.193L516.234 424.597V452.796L441.193 409.393Z" fill="#FF8B02"/>
<path d="M441.193 409.393V381.193L516.234 424.597V452.796L441.193 409.393Z" fill="#F06927"/>
<path opacity="0.15" d="M351.384 330.958L394.952 356.143V365.252L351.384 340.067V330.958Z" fill="#153B7C"/>
<path opacity="0.15" d="M351.384 349.177L430.034 394.657V403.766L351.384 358.353V349.177Z" fill="#153B7C"/>
<path opacity="0.15" d="M351.384 367.462L453.154 426.339V435.448L351.384 376.572V367.462Z" fill="#153B7C"/>
<path d="M340.626 334.24C340.626 342.813 335.547 346.832 329.333 343.215C323.118 339.598 318.04 329.752 318.04 321.178C318.04 312.605 323.118 308.586 329.333 312.203C335.547 315.82 340.626 325.666 340.626 334.24Z" fill="#FF8B02"/>
<path d="M340.626 334.24C340.626 342.813 335.547 346.832 329.333 343.215C323.118 339.598 318.04 329.752 318.04 321.178C318.04 312.605 323.118 308.586 329.333 312.203C335.547 315.82 340.626 325.666 340.626 334.24Z" fill="#F06927"/>
<path opacity="0.3" d="M160.34 224.592L272.333 289.362V497.339L160.34 432.568V224.592Z" fill="url(#paint5_linear_685_10880)"/>
<path opacity="0.15" d="M171.365 348.038L261.308 400.082V409.192L171.365 357.147V348.038Z" fill="#153B7C"/>
<path opacity="0.15" d="M177.647 369.472L254.96 414.215V423.325L177.647 378.581V369.472Z" fill="#153B7C"/>
<path d="M210.323 406.646L132.408 361.568V384.811L210.323 429.889V406.646Z" fill="#8EC543"/>
<path d="M229.1 306.376C229.1 316.423 223.287 321.179 216.137 317.026C208.987 312.873 203.173 301.285 203.173 291.171C203.173 281.124 208.987 276.368 216.137 280.521C223.287 284.741 229.1 296.329 229.1 306.376Z" fill="#8EC543"/>
<path d="M216.137 325.13C204.576 318.365 195.021 324.728 193.35 339.263C193.083 341.809 194.954 345.158 197.293 346.497L234.98 368.601C237.319 369.941 239.19 368.869 238.923 365.989C237.252 349.377 227.697 331.895 216.137 325.13Z" fill="#8EC543"/>
<path opacity="0.2" d="M97.9951 207.579L69.3953 191.034V181.389L97.9951 197.933C100.334 199.273 103.742 202.019 106.615 206.239C109.756 210.727 111.961 216.42 111.961 222.582C111.961 229.414 110.224 233.299 106.949 234.371C103.875 235.376 100.2 233.634 97.9951 232.362L86.2344 225.529L86.1676 225.462C85.1653 224.86 83.5615 224.257 82.2919 224.659C81.2228 224.994 80.0868 225.998 80.0868 229.816C80.0868 233.634 81.2896 235.912 82.2251 237.318C83.4279 239.06 85.0316 240.265 86.0339 240.801L86.1676 240.868L122.118 261.699V271.345L86.4349 250.647C83.9625 249.375 80.4209 246.629 77.3471 242.342C74.006 237.586 71.734 231.625 71.734 224.994C71.734 218.363 74.006 215.013 77.2803 214.076C80.3541 213.205 83.8956 214.478 86.3681 215.951L97.9951 222.716C99.6656 223.721 100.935 224.123 101.804 223.855C102.472 223.654 103.675 222.716 103.675 217.827C103.675 214.612 102.673 212.535 101.67 211.196C100.468 209.387 98.9306 208.114 97.9951 207.579Z" fill="#153B7C"/>
<path d="M74.6073 188.958C74.6073 197.598 69.5289 201.684 63.3144 198.134C57.1 194.517 52.0215 184.604 52.0215 175.896C52.0215 167.256 57.1 163.17 63.3144 166.72C69.5289 170.337 74.6073 180.317 74.6073 188.958Z" fill="#FF8B02"/>
<path d="M74.6073 188.958C74.6073 197.598 69.5289 201.684 63.3144 198.134C57.1 194.517 52.0215 184.604 52.0215 175.896C52.0215 167.256 57.1 163.17 63.3144 166.72C69.5289 170.337 74.6073 180.317 74.6073 188.958Z" fill="#F06927"/>
<path d="M136.752 274.693C136.752 283.334 131.673 287.42 125.459 283.87C119.244 280.253 114.166 270.34 114.166 261.632C114.166 252.992 119.244 248.906 125.459 252.456C131.673 256.073 136.752 266.053 136.752 274.693Z" fill="#8EC543"/>
<defs>
<linearGradient id="paint0_linear_685_10880" x1="477.83" y1="110.619" x2="255.816" y2="220.491" gradientUnits="userSpaceOnUse">
<stop stop-color="#4755DC"/>
<stop offset="1" stop-color="white" stop-opacity="0"/>
</linearGradient>
<linearGradient id="paint1_linear_685_10880" x1="330.531" y1="96.2099" x2="196.21" y2="159.31" gradientUnits="userSpaceOnUse">
<stop stop-color="#4755DC"/>
<stop offset="1" stop-color="#4755DC"/>
</linearGradient>
<linearGradient id="paint2_linear_685_10880" x1="393.085" y1="142.534" x2="294.665" y2="243.911" gradientUnits="userSpaceOnUse">
<stop offset="0.00520833" stop-color="#4755DC"/>
<stop offset="1" stop-color="#153B7C"/>
</linearGradient>
<linearGradient id="paint3_linear_685_10880" x1="176.874" y1="73.7519" x2="74.016" y2="154.095" gradientUnits="userSpaceOnUse">
<stop stop-color="#4755DC"/>
<stop offset="1" stop-color="white" stop-opacity="0"/>
</linearGradient>
<linearGradient id="paint4_linear_685_10880" x1="385.637" y1="279.418" x2="411.464" y2="488.404" gradientUnits="userSpaceOnUse">
<stop stop-color="#4755DC"/>
<stop offset="1" stop-color="#4755DC" stop-opacity="0"/>
</linearGradient>
<linearGradient id="paint5_linear_685_10880" x1="284.328" y1="242.922" x2="184.564" y2="415.353" gradientUnits="userSpaceOnUse">
<stop offset="0.0104167" stop-color="#4755DC"/>
<stop offset="1" stop-color="#4755DC" stop-opacity="0"/>
</linearGradient>
</defs>
</svg>
