<svg width="45" height="42" viewBox="0 0 45 42" fill="none" xmlns="http://www.w3.org/2000/svg">
<path d="M32.4961 7.30057L33.943 11.0294L37.7847 12.4337L33.943 13.8381L32.4961 17.5669L31.0491 13.8381L27.2074 12.4337L31.0491 11.0294L32.4961 7.30057ZM32.4961 1.78003L29.5025 9.52816L21.5195 12.4337L29.5025 15.3393L32.4961 23.0874L35.4897 15.3393L43.4726 12.4337L35.4897 9.52816L32.4961 1.78003Z" fill="#F06927"/>
<path d="M9.28962 30.595H22.4955L25.6934 25.0203H6.09172L9.28962 30.595ZM29.7577 14.323H2.02749C1.10465 14.323 0.528355 15.3287 0.991654 16.131L4.70559 22.6097H27.0796L30.7973 16.131C31.2568 15.3287 30.6805 14.323 29.7577 14.323ZM9.75292 40.087C9.75292 40.7537 10.2878 41.2923 10.9507 41.2923H20.8344C21.4974 41.2923 22.0322 40.7537 22.0322 40.087V33.0057H9.75292V40.087Z" fill="#F06927"/>
</svg>
