<svg width="346" height="62" viewBox="0 0 346 62" fill="none" xmlns="http://www.w3.org/2000/svg">
<path d="M335.155 0.355469H345.595V36.2124L335.155 26.891V0.355469Z" fill="#37B992"/>
<path d="M345.593 10.7947L345.593 0.355433L309.736 0.355433L321.283 10.7947L345.593 10.7947Z" fill="#37B992"/>
<path d="M257.11 28.3245H251.465V38.6917H257.225C258.838 38.6917 260.162 38.2117 261.199 37.2518C262.236 36.2535 262.754 34.9864 262.754 33.4505C262.754 31.7226 262.255 30.4363 261.257 29.5916C260.258 28.7468 258.876 28.3245 257.11 28.3245ZM240.983 59.2534V20.0883H257.455C261.794 20.0883 265.557 21.1442 268.744 23.256C271.969 25.3295 273.582 28.7276 273.582 33.4505C273.582 35.8311 273.083 37.8854 272.085 39.6132C271.125 41.3411 269.858 42.7426 268.283 43.8177L276.923 59.2534H264.77L258.434 46.9279H251.465V59.2534H240.983ZM274.049 39.8436C274.049 33.8153 275.757 28.8812 279.175 25.0415C282.592 21.2018 287.238 19.2819 293.113 19.2819C299.487 19.2819 304.267 21.2402 307.454 25.1567C310.641 29.0732 312.235 33.8345 312.235 39.4405C312.235 45.5072 310.545 50.4605 307.166 54.3002C303.787 58.1399 299.103 60.0598 293.113 60.0598C286.854 60.0598 282.112 58.1015 278.887 54.185C275.661 50.2301 274.049 45.4496 274.049 39.8436ZM284.819 39.786C284.819 43.0882 285.453 45.8336 286.72 48.0222C287.987 50.2109 290.099 51.3052 293.055 51.3052C295.743 51.3052 297.817 50.3261 299.276 48.3678C300.735 46.3712 301.464 43.3954 301.464 39.4405C301.464 36.1767 300.812 33.4697 299.506 31.3194C298.239 29.1308 296.146 28.0365 293.228 28.0365C290.617 28.0365 288.563 29.1116 287.065 31.2618C285.568 33.4121 284.819 36.2535 284.819 39.786ZM312.82 59.2534V20.0883H323.303V59.2534H312.82Z" fill="#37B992"/>
<path d="M8.15419 49.8971C8.15419 50.8647 8.54584 51.7401 9.32914 52.5234C10.1124 53.2607 11.1492 53.6293 12.4393 53.6293C13.6834 53.6293 14.9275 53.3528 16.1715 52.7999C17.4617 52.247 18.6827 51.4176 19.8346 50.3117V45.1972H13.0613C11.4947 45.1972 10.2737 45.681 9.39826 46.6486C8.56888 47.6163 8.15419 48.6991 8.15419 49.8971ZM12.5775 60.7481C8.47672 60.7481 5.43566 59.7575 3.45437 57.7762C1.47307 55.7488 0.482422 53.1224 0.482422 49.8971C0.482422 46.4413 1.65738 43.7919 4.00729 41.9488C6.3572 40.1058 9.4213 39.1842 13.1996 39.1842H19.7655C19.7194 37.4794 19.2126 36.1662 18.245 35.2447C17.3234 34.2771 16.0333 33.7933 14.3745 33.7933C12.8079 33.7933 11.1031 34.0236 9.26003 34.4844C7.41696 34.8991 5.87339 35.4059 4.62932 36.0049L2.2103 28.5405C3.50044 27.6651 5.4587 26.9509 8.08507 26.398C10.7575 25.799 12.8079 25.4995 14.2363 25.4995C18.245 25.4995 21.6777 26.6744 24.5344 29.0243C27.3912 31.3282 28.8196 34.2771 28.8196 37.871V59.9187H24.1889L21.9772 57.085C20.7331 58.0526 19.2587 58.905 17.5538 59.6423C15.8951 60.3795 14.2363 60.7481 12.5775 60.7481Z" fill="white"/>
<path d="M48.2898 32.7565C45.1566 32.7565 42.968 33.8624 41.7239 36.074C40.5259 38.2857 39.9269 40.5665 39.9269 42.9164C39.9269 45.5428 40.4798 47.8927 41.5857 49.9662C42.6915 52.0396 44.9262 53.0763 48.2898 53.0763C49.3496 53.0763 50.4554 52.846 51.6074 52.3852C52.8054 51.8783 53.9112 51.3024 54.9249 50.6573V35.1756C53.9112 34.4844 52.8054 33.9084 51.6074 33.4477C50.4554 32.9869 49.3496 32.7565 48.2898 32.7565ZM63.9789 11.1235V59.9187H59.2791L56.791 56.6703C55.2705 57.9605 53.4735 58.9742 51.4 59.7114C49.3726 60.4025 47.5296 60.7481 45.8708 60.7481C40.9867 60.7481 37.2314 59.0433 34.6051 55.6336C31.9787 52.2239 30.6655 47.9849 30.6655 42.9164C30.6655 37.848 32.0478 33.609 34.8124 30.1993C37.6231 26.7896 41.4474 25.0848 46.2855 25.0848C47.5296 25.0848 48.9349 25.3152 50.5015 25.7759C52.0681 26.1906 53.5426 26.7896 54.9249 27.5729V11.8838L63.9789 11.1235Z" fill="white"/>
<path d="M76.8952 59.9187L64.0398 27.642L73.3012 26.398L81.0421 46.7178L88.3683 26.398H97.837L84.636 59.9187H76.8952Z" fill="white"/>
<path d="M114.776 60.7481C108.97 60.7481 104.386 59.1585 101.022 55.9792C97.7045 52.7999 96.0458 48.5378 96.0458 43.1929C96.0458 37.848 97.5433 33.5629 100.538 30.3375C103.579 27.1121 107.703 25.4995 112.91 25.4995C118.163 25.4995 122.01 27.2504 124.452 30.7522C126.94 34.2079 128.184 38.3088 128.184 43.0547V45.8193H105.584C105.998 48.0309 107.012 49.8049 108.625 51.1411C110.237 52.4313 112.357 53.0763 114.983 53.0763C116.504 53.0763 117.863 52.892 119.061 52.5234C120.305 52.1087 121.734 51.5328 123.346 50.7955L125.973 57.2924C124.406 58.4904 122.494 59.3658 120.236 59.9187C118.024 60.4716 116.204 60.7481 114.776 60.7481ZM119.683 39.8063C119.222 37.5485 118.393 35.8897 117.195 34.83C115.997 33.7241 114.499 33.1712 112.702 33.1712C110.859 33.1712 109.316 33.7472 108.072 34.8991C106.828 36.0049 106.021 37.6407 105.653 39.8063H119.683Z" fill="white"/>
<path d="M144.409 27.2681L146.502 34.1751C144.837 34.8725 144.387 35.2325 143.425 35.732C141.473 36.8524 140.971 37.0647 139.036 38.7695V59.9187H130.051V26.398H134.751L137.722 31.3051C139.105 30.1071 139.233 29.6092 141.215 28.5955C143.196 27.5357 143.425 27.5381 144.409 27.2681Z" fill="white"/>
<path d="M170.516 59.2276C169.779 59.8266 168.719 60.3104 167.337 60.679C166.001 61.0937 164.803 61.301 163.743 61.301C159.596 61.301 156.325 60.2643 153.929 58.1908C151.579 56.0713 150.404 53.0763 150.404 49.2059V33.3786H148.122L146.361 26.4671H150.404V18.5188L159.32 16.9292V26.4671H165.402L168.166 33.3786H159.32V47.6163C159.32 49.3672 159.734 50.8186 160.564 51.9705C161.393 53.0763 162.614 53.6293 164.227 53.6293C164.826 53.6293 165.425 53.5601 166.024 53.4219C166.623 53.2837 167.245 53.0533 167.89 52.7308L170.516 59.2276Z" fill="white"/>
<path d="M174.95 11.5382C176.379 11.5382 177.577 12.022 178.544 12.9896C179.558 13.9572 180.065 15.1552 180.065 16.5836C180.065 18.012 179.558 19.21 178.544 20.1776C177.577 21.1452 176.379 21.629 174.95 21.629C173.568 21.629 172.393 21.1452 171.425 20.1776C170.458 19.21 169.974 18.012 169.974 16.5836C169.974 15.1552 170.458 13.9572 171.425 12.9896C172.393 12.022 173.568 11.5382 174.95 11.5382ZM179.443 26.398V59.9187H170.458V26.398H179.443Z" fill="white"/>
<path d="M202.8 35.452C201.187 34.7148 199.689 34.1619 198.307 33.7933C196.925 33.3786 195.45 33.1712 193.884 33.1712C192.732 33.1712 191.833 33.4016 191.188 33.8624C190.589 34.2771 190.29 34.8761 190.29 35.6594C190.29 36.2123 190.658 36.7422 191.396 37.249C192.179 37.7559 193.423 38.3088 195.128 38.9078C197.939 39.9215 200.542 41.3498 202.938 43.1929C205.334 44.9899 206.532 47.3398 206.532 50.2426C206.532 53.5602 205.334 56.1404 202.938 57.9835C200.588 59.8266 197.132 60.7481 192.571 60.7481C191.142 60.7481 189.23 60.4716 186.834 59.9187C184.484 59.3658 182.526 58.4904 180.959 57.2924L183.655 50.7955C185.267 51.5328 186.811 52.1087 188.285 52.5234C189.806 52.892 191.188 53.0763 192.432 53.0763C194.091 53.0763 195.358 52.846 196.234 52.3852C197.109 51.9244 197.547 51.3254 197.547 50.5882C197.547 49.6667 197.109 48.8373 196.234 48.1001C195.358 47.3628 193.976 46.6947 192.087 46.0957C189.414 45.2203 186.88 43.9762 184.484 42.3635C182.134 40.7048 180.959 38.4931 180.959 35.7285C180.959 32.5492 182.134 30.061 184.484 28.2641C186.834 26.421 190.013 25.4995 194.022 25.4995C195.45 25.4995 197.293 25.799 199.551 26.398C201.809 26.9969 203.79 27.8724 205.495 29.0243L202.8 35.452Z" fill="white"/>
<path d="M225.243 60.7481C219.437 60.7481 214.853 59.1585 211.489 55.9792C208.172 52.7999 206.513 48.5378 206.513 43.1929C206.513 37.848 208.01 33.5629 211.005 30.3375C214.046 27.1121 218.17 25.4995 223.377 25.4995C228.63 25.4995 232.477 27.2504 234.919 30.7522C237.407 34.2079 238.651 38.3088 238.651 43.0547V45.8193H216.051C216.465 48.0309 217.479 49.8049 219.092 51.1411C220.704 52.4313 222.824 53.0763 225.45 53.0763C226.971 53.0763 228.33 52.892 229.528 52.5234C230.772 52.1087 232.201 51.5328 233.813 50.7955L236.44 57.2924C234.873 58.4904 232.961 59.3658 230.703 59.9187C228.491 60.4716 226.671 60.7481 225.243 60.7481ZM230.15 39.8063C229.689 37.5485 228.86 35.8897 227.662 34.83C226.464 33.7241 224.966 33.1712 223.169 33.1712C221.326 33.1712 219.783 33.7472 218.539 34.8991C217.295 36.0049 216.488 37.6407 216.12 39.8063H230.15Z" fill="white"/>
</svg>
