<svg width="46" height="46" viewBox="0 0 46 46" fill="none" xmlns="http://www.w3.org/2000/svg">
<path d="M25.1191 37.9533C25.1941 38.5158 25.0066 39.1158 24.5941 39.5096C23.8441 40.2408 22.6629 40.2408 21.9316 39.5096L14.4129 31.9908C14.2084 31.7909 14.0529 31.5464 13.9586 31.2765C13.8642 31.0065 13.8336 30.7184 13.8691 30.4346V20.8346L4.88789 9.34084C4.58341 8.94996 4.44602 8.45445 4.50574 7.96259C4.56547 7.47072 4.81746 7.02249 5.20664 6.71584C5.56289 6.45334 5.95664 6.30334 6.36914 6.30334H32.6191C33.0316 6.30334 33.4254 6.45334 33.7816 6.71584C34.1708 7.02249 34.4228 7.47072 34.4825 7.96259C34.5423 8.45445 34.4049 8.94996 34.1004 9.34084L25.1191 20.8346V37.9533ZM10.1941 10.0533L17.6191 19.5596V29.8908L21.3691 33.6408V19.5221L28.7941 10.0533H10.1941ZM34.0254 40.0533L28.8691 34.4283L31.0441 32.2533L34.0254 35.2346L40.7566 28.5033L42.9316 31.1471L34.0254 40.0533Z" fill="#37B992"/>
</svg>
