<svg width="45" height="45" viewBox="0 0 45 45" fill="none" xmlns="http://www.w3.org/2000/svg">
<path d="M30.5763 29.4193L35.0496 32.0043L33.6746 34.3877L27.8263 31.0144V24.2493H30.5763V29.4193ZM36.9929 19.226V9.58268C36.9929 8.61022 36.6066 7.67759 35.919 6.98996C35.2313 6.30232 34.2987 5.91602 33.3263 5.91602H7.65959C5.64292 5.91602 3.99292 7.56602 3.99292 9.58268V31.5827C3.99292 32.5551 4.37923 33.4878 5.06686 34.1754C5.75449 34.863 6.68713 35.2493 7.65959 35.2493H18.0729C20.1446 39.576 24.5446 42.5827 29.6596 42.5827C36.7546 42.5827 42.4929 36.8443 42.4929 29.7493C42.4929 25.386 40.3113 21.5543 36.9929 19.226ZM33.3263 13.2493V17.4477C32.1713 17.1177 30.9429 16.916 29.6596 16.916C26.9096 16.916 24.3979 17.7777 22.3263 19.226V13.2493H33.3263ZM7.65959 13.2493H18.6596V20.5827H7.65959V13.2493ZM7.65959 31.5827V24.2493H18.0729C17.2559 25.968 16.8301 27.8464 16.8263 29.7493C16.8263 30.3727 16.8813 30.9777 16.9729 31.5827H7.65959ZM29.6596 38.916C24.5996 38.916 20.4929 34.8093 20.4929 29.7493C20.4929 24.6893 24.5996 20.5827 29.6596 20.5827C34.7196 20.5827 38.8263 24.6893 38.8263 29.7493C38.8263 34.8093 34.7196 38.916 29.6596 38.916Z" fill="#37B992"/>
</svg>
