<svg width="49" height="49" viewBox="0 0 49 49" fill="none" xmlns="http://www.w3.org/2000/svg">
<path d="M47.3384 34.5259L37.3384 44.5259L30.3384 37.5259L33.3384 34.5259L37.3384 38.5259L44.3384 31.5259L47.3384 34.5259ZM12.3384 4.52594C11.2775 4.52594 10.2601 4.94737 9.50995 5.69751C8.75981 6.44766 8.33838 7.46507 8.33838 8.52594V40.5259C8.33838 42.7459 10.1184 44.5259 12.3384 44.5259H27.9584C27.2384 43.2859 26.7384 41.9259 26.4984 40.5259H12.3384V8.52594H26.3384V18.5259H36.3384V26.6859C36.9984 26.5859 37.6784 26.5259 38.3384 26.5259C39.0184 26.5259 39.6784 26.5859 40.3384 26.6859V16.5259L28.3384 4.52594M16.3384 24.5259V28.5259H32.3384V24.5259M16.3384 32.5259V36.5259H26.3384V32.5259H16.3384Z" fill="#37B992"/>
</svg>
