<svg width="45" height="45" viewBox="0 0 45 45" fill="none" xmlns="http://www.w3.org/2000/svg">
<path d="M13.097 13.2493H9.43034C8.45788 13.2493 7.52525 13.6356 6.83761 14.3232C6.14998 15.0108 5.76367 15.9435 5.76367 16.9159V31.5826H9.43034V24.2493H13.097V31.5826H16.7637V16.9159C16.7637 15.9435 16.3774 15.0108 15.6897 14.3232C15.0021 13.6356 14.0695 13.2493 13.097 13.2493M13.097 20.5826H9.43034V16.9159H13.097M25.9303 13.2493H18.597V31.5826H22.2637V24.2493H25.9303C26.9028 24.2493 27.8354 23.863 28.5231 23.1753C29.2107 22.4877 29.597 21.5551 29.597 20.5826V16.9159C29.597 15.9435 29.2107 15.0108 28.5231 14.3232C27.8354 13.6356 26.9028 13.2493 25.9303 13.2493M25.9303 20.5826H22.2637V16.9159H25.9303M36.9303 16.9159V27.9159H38.7637V31.5826H31.4303V27.9159H33.2637V16.9159H31.4303V13.2493H38.7637V16.9159H36.9303Z" fill="#37B992"/>
</svg>
