<svg width="45" height="38" viewBox="0 0 45 38" fill="none" xmlns="http://www.w3.org/2000/svg">
<path d="M42.9714 17.1666H33.8047C33.3185 17.1666 32.8521 17.3598 32.5083 17.7036C32.1645 18.0474 31.9714 18.5137 31.9714 19V35.5C31.9714 35.9862 32.1645 36.4525 32.5083 36.7963C32.8521 37.1401 33.3185 37.3333 33.8047 37.3333H42.9714C43.4576 37.3333 43.9239 37.1401 44.2677 36.7963C44.6115 36.4525 44.8047 35.9862 44.8047 35.5V19C44.8047 18.5137 44.6115 18.0474 44.2677 17.7036C43.9239 17.3598 43.4576 17.1666 42.9714 17.1666ZM42.9714 33.6666H33.8047V20.8333H42.9714V33.6666ZM37.4714 0.666626H4.47135C2.43635 0.666626 0.804688 2.29829 0.804688 4.33329V26.3333C0.804688 27.3058 1.191 28.2384 1.87863 28.926C2.56626 29.6137 3.49889 30 4.47135 30H17.3047V33.6666H13.638V37.3333H28.3047V33.6666H24.638V30H28.3047V26.3333H4.47135V4.33329H37.4714V13.5H41.138V4.33329C41.138 3.36083 40.7517 2.4282 40.0641 1.74057C39.3764 1.05293 38.4438 0.666626 37.4714 0.666626ZM22.7497 13.5L20.9714 7.99996L19.193 13.5H13.638L18.1664 16.7266L16.443 22.0616L20.9714 18.7616L25.4997 22.0616L23.7764 16.7266L28.3047 13.5H22.7497Z" fill="#F06927"/>
</svg>
