<svg width="73" height="72" viewBox="0 0 73 72" fill="none" xmlns="http://www.w3.org/2000/svg">
<path d="M30.2285 41.9999C31.2062 42.9977 32.3731 43.7904 33.6609 44.3315C34.9487 44.8727 36.3316 45.1514 37.7285 45.1514C39.1254 45.1514 40.5083 44.8727 41.7961 44.3315C43.084 43.7904 44.2509 42.9977 45.2285 41.9999L57.2285 29.9999C59.2176 28.0108 60.3351 25.313 60.3351 22.4999C60.3351 19.6869 59.2176 16.989 57.2285 14.9999C55.2394 13.0108 52.5416 11.8933 49.7285 11.8933C46.9155 11.8933 44.2176 13.0108 42.2285 14.9999L40.7285 16.4999" stroke="#37B992" stroke-width="6" stroke-linecap="round" stroke-linejoin="round"/>
<path d="M42.2285 30C41.2509 29.0022 40.084 28.2095 38.7961 27.6684C37.5083 27.1272 36.1254 26.8485 34.7285 26.8485C33.3316 26.8485 31.9487 27.1272 30.6609 27.6684C29.3731 28.2095 28.2062 29.0022 27.2285 30L15.2285 42C13.2394 43.9891 12.1219 46.687 12.1219 49.5C12.1219 52.313 13.2394 55.0109 15.2285 57C17.2176 58.9891 19.9155 60.1066 22.7285 60.1066C25.5416 60.1066 28.2394 58.9891 30.2285 57L31.7285 55.5M48.2285 63V57M57.2285 48H63.2285M9.22852 24H15.2285M24.2285 9V15" stroke="#37B992" stroke-width="6" stroke-linecap="round" stroke-linejoin="round"/>
</svg>
