<svg width="44" height="44" viewBox="0 0 44 44" fill="none" xmlns="http://www.w3.org/2000/svg">
<path d="M37.933 18.2787C37.2938 15.4675 35.9126 12.8792 33.9332 10.7832C31.9539 8.68715 29.4489 7.1601 26.6789 6.36103C23.909 5.56197 20.9755 5.52011 18.1839 6.23983C15.3922 6.95955 12.8446 8.41451 10.8063 10.4532C8.76799 12.4919 7.31351 15.0398 6.59431 17.8315C5.87511 20.6233 5.91751 23.5568 6.71709 26.3266C7.51667 29.0964 9.04418 31.6011 11.1406 33.5801C13.237 35.559 15.8256 36.9397 18.6368 37.5785M23.9957 37.9744H38.329V25.4328" stroke="#37B992" stroke-width="3" stroke-linecap="round" stroke-linejoin="round"/>
<path d="M22.2041 14.6829V21.8495L27.5791 27.2245" stroke="#37B992" stroke-width="3" stroke-linecap="round" stroke-linejoin="round"/>
</svg>
