<svg width="39" height="36" viewBox="0 0 39 36" fill="none" xmlns="http://www.w3.org/2000/svg">
<path d="M15.1 0.603333C19.1334 0.603333 22.4334 3.90333 22.4334 7.93667C22.4334 11.97 19.1334 15.27 15.1 15.27C11.0667 15.27 7.76668 11.97 7.76668 7.93667C7.76668 3.90333 11.0667 0.603333 15.1 0.603333ZM27.9334 31.77L31.2334 35.015C32.15 35.9317 33.4334 35.1983 33.4334 34.1167V26.27L38.5667 20.0367C38.771 19.7643 38.8954 19.4404 38.9259 19.1013C38.9565 18.7622 38.8921 18.4213 38.7398 18.1168C38.5875 17.8122 38.3535 17.5561 38.0639 17.3771C37.7742 17.1981 37.4405 17.1033 37.1 17.1033H24.2667C22.8 17.1033 21.8834 18.9367 22.8 20.0367L27.9334 26.27V31.77ZM24.2667 27.5533L20.05 22.42C19.3167 21.5033 18.95 20.4033 18.95 19.3033C17.6667 18.9367 16.3834 18.9367 15.1 18.9367C7.03335 18.9367 0.43335 22.2367 0.43335 26.27V29.9367H24.2667V27.5533Z" fill="#37B992"/>
</svg>
