<svg width="15" height="14" viewBox="0 0 15 14" fill="none" xmlns="http://www.w3.org/2000/svg">
<path d="M12.3133 3.26416C12.3133 3.48694 12.2248 3.70038 12.0673 3.85791C11.9097 4.01544 11.6961 4.104 11.4733 4.104C11.2505 4.104 11.0369 4.01544 10.8793 3.85791C10.7218 3.70038 10.6333 3.48694 10.6333 3.26416C10.6333 3.04138 10.7218 2.82745 10.8793 2.66992C11.0369 2.51239 11.2505 2.42383 11.4733 2.42383C11.6961 2.42383 11.9097 2.51239 12.0673 2.66992C12.2248 2.82745 12.3133 3.04138 12.3133 3.26416ZM10.0603 6.99512C10.0603 6.37756 9.81497 5.78531 9.3783 5.34863C8.94162 4.91195 8.34937 4.6665 7.73181 4.6665C7.11425 4.6665 6.52201 4.91195 6.08533 5.34863C5.64865 5.78531 5.40332 6.37756 5.40332 6.99512C5.40332 7.61267 5.64865 8.20492 6.08533 8.6416C6.52201 9.07828 7.11425 9.32373 7.73181 9.32373C8.34937 9.32373 8.94162 9.07828 9.3783 8.6416C9.81497 8.20492 10.0603 7.61267 10.0603 6.99512ZM11.3223 7C11.3227 7.47179 11.2301 7.93898 11.0499 8.375C10.8697 8.81102 10.6053 9.20718 10.272 9.54102C9.9386 9.87486 9.54276 10.14 9.10699 10.3208C8.67123 10.5016 8.20409 10.595 7.7323 10.5952C6.77955 10.5944 5.86616 10.2152 5.19293 9.54102C4.51971 8.86685 4.1418 7.95275 4.14233 7C4.14194 6.52821 4.23446 6.06102 4.41467 5.625C4.59489 5.18898 4.85925 4.79282 5.19263 4.45898C5.526 4.12514 5.92184 3.86002 6.3576 3.6792C6.79337 3.49838 7.26051 3.40505 7.7323 3.40479C9.7143 3.40479 11.3223 5.015 11.3223 7ZM10.6243 0.0429688C13.1683 0.158969 14.5813 1.57377 14.6953 4.11377C14.7293 4.86077 14.7373 5.099 14.7373 7C14.7373 8.901 14.7293 9.14023 14.6943 9.88623C14.5803 12.4312 13.1643 13.841 10.6243 13.958C9.87733 13.992 9.6383 14 7.7373 14C5.8363 14 5.59732 13.992 4.85132 13.958C2.30632 13.841 0.896297 12.4282 0.779297 9.88623C0.745297 9.14023 0.737305 8.901 0.737305 7C0.737305 5.099 0.745334 4.85977 0.780334 4.11377C0.896334 1.56877 2.31032 0.158992 4.85132 0.0419922C5.59832 0.00799219 5.8363 0 7.7373 0C9.6383 0 9.87733 0.00796875 10.6243 0.0429688ZM7.7373 1.26221C5.8683 1.26221 5.64733 1.26876 4.90833 1.30176C3.01033 1.38776 2.12631 2.28888 2.03931 4.17188C2.00631 4.90987 1.99933 5.131 1.99933 7C1.99933 8.87 2.00531 9.0901 2.03931 9.8291C2.12531 11.7081 3.0073 12.6122 4.9093 12.6992C5.6463 12.7322 5.8683 12.7388 7.7373 12.7388C9.6073 12.7388 9.82732 12.7322 10.5673 12.6992C12.4653 12.6122 13.3493 11.7101 13.4363 9.8291C13.4693 9.0911 13.4763 8.86998 13.4763 7.00098C13.4763 5.13098 13.4693 4.90987 13.4363 4.17188C13.3493 2.28888 12.4633 1.38876 10.5663 1.30176C9.82828 1.26876 9.6063 1.26221 7.7373 1.26221Z" fill="black"/>
</svg>
