<svg width="51" height="51" viewBox="0 0 51 51" fill="none" xmlns="http://www.w3.org/2000/svg">
<path d="M0.50415 7.72783C0.50415 5.81827 1.26272 3.98692 2.61298 2.63666C3.96324 1.2864 5.79459 0.527832 7.70415 0.527832H43.7041C45.6137 0.527832 47.4451 1.2864 48.7953 2.63666C50.1456 3.98692 50.9041 5.81827 50.9041 7.72783V43.7278C50.9041 45.6374 50.1456 47.4687 48.7953 48.819C47.4451 50.1693 45.6137 50.9278 43.7041 50.9278H7.70415C5.79459 50.9278 3.96324 50.1693 2.61298 48.819C1.26272 47.4687 0.50415 45.6374 0.50415 43.7278V7.72783ZM12.4165 11.4646C12.2016 11.5533 12.006 11.6829 11.8406 11.8462L11.8225 11.8642C11.4898 12.2005 11.3035 12.6547 11.3041 13.1278V20.3278C11.3041 20.8052 11.4938 21.2631 11.8314 21.6006C12.1689 21.9382 12.6268 22.1278 13.1041 22.1278C13.5815 22.1278 14.0394 21.9382 14.3769 21.6006C14.7145 21.2631 14.9042 20.8052 14.9042 20.3278V17.473L19.0297 21.6022C19.3677 21.9402 19.8262 22.1301 20.3041 22.1301C20.7821 22.1301 21.2406 21.9402 21.5786 21.6022C21.9165 21.2642 22.1064 20.8058 22.1064 20.3278C22.1064 19.8498 21.9165 19.3914 21.5786 19.0534L17.4493 14.9278H20.3041C20.7815 14.9278 21.2394 14.7382 21.5769 14.4006C21.9145 14.0631 22.1041 13.6052 22.1041 13.1278C22.1041 12.6504 21.9145 12.1926 21.5769 11.855C21.2394 11.5175 20.7815 11.3278 20.3041 11.3278H13.1041C12.8682 11.3278 12.6345 11.3743 12.4165 11.4646ZM11.3041 31.1278V38.3278C11.3038 38.8009 11.4901 39.2549 11.8225 39.5914L11.8406 39.6094C12.1746 39.9389 12.6241 40.1249 13.0934 40.1278H20.3041C20.7815 40.1278 21.2394 39.9382 21.5769 39.6006C21.9145 39.2631 22.1041 38.8052 22.1041 38.3278C22.1041 37.8504 21.9145 37.3926 21.5769 37.055C21.2394 36.7175 20.7815 36.5278 20.3041 36.5278H17.4493L21.5786 32.4022C21.9165 32.0642 22.1064 31.6058 22.1064 31.1278C22.1064 30.6498 21.9165 30.1914 21.5786 29.8534C21.2406 29.5154 20.7821 29.3256 20.3041 29.3256C19.8262 29.3256 19.3677 29.5154 19.0297 29.8534L14.9042 33.9826V31.1278C14.9042 30.6504 14.7145 30.1926 14.3769 29.855C14.0394 29.5175 13.5815 29.3278 13.1041 29.3278C12.6268 29.3278 12.1689 29.5175 11.8314 29.855C11.4938 30.1926 11.3041 30.6504 11.3041 31.1278ZM39.5677 11.8462C39.2314 11.5135 38.7773 11.3271 38.3041 11.3278H31.1041C30.6268 11.3278 30.1689 11.5175 29.8314 11.855C29.4938 12.1926 29.3041 12.6504 29.3041 13.1278C29.3041 13.6052 29.4938 14.0631 29.8314 14.4006C30.1689 14.7382 30.6268 14.9278 31.1041 14.9278H33.959L29.8298 19.0534C29.6624 19.2208 29.5296 19.4195 29.4391 19.6381C29.3485 19.8568 29.3019 20.0912 29.3019 20.3278C29.3019 20.5645 29.3485 20.7989 29.4391 21.0175C29.5296 21.2362 29.6624 21.4349 29.8298 21.6022C29.9971 21.7696 30.1958 21.9023 30.4144 21.9929C30.6331 22.0835 30.8675 22.1301 31.1041 22.1301C31.3408 22.1301 31.5752 22.0835 31.7938 21.9929C32.0125 21.9023 32.2112 21.7696 32.3785 21.6022L36.5042 17.473V20.3278C36.5042 20.8052 36.6938 21.2631 37.0314 21.6006C37.3689 21.9382 37.8268 22.1278 38.3041 22.1278C38.7815 22.1278 39.2394 21.9382 39.5769 21.6006C39.9145 21.2631 40.1041 20.8052 40.1041 20.3278V13.1278C40.1041 12.6549 39.9178 12.201 39.5858 11.8642L39.5677 11.8462ZM38.9917 39.991C39.2066 39.9023 39.4022 39.7727 39.5677 39.6094L39.5858 39.5914C39.9182 39.2549 40.1045 38.8009 40.1041 38.3278V31.1278C40.1041 30.6504 39.9145 30.1926 39.5769 29.855C39.2394 29.5175 38.7815 29.3278 38.3041 29.3278C37.8268 29.3278 37.3689 29.5175 37.0314 29.855C36.6938 30.1926 36.5042 30.6504 36.5042 31.1278V33.9826L32.3785 29.8534C32.2112 29.6861 32.0125 29.5533 31.7938 29.4627C31.5752 29.3722 31.3408 29.3256 31.1041 29.3256C30.8675 29.3256 30.6331 29.3722 30.4144 29.4627C30.1958 29.5533 29.9971 29.6861 29.8298 29.8534C29.6624 30.0208 29.5296 30.2195 29.4391 30.4381C29.3485 30.6568 29.3019 30.8912 29.3019 31.1278C29.3019 31.3645 29.3485 31.5989 29.4391 31.8175C29.5296 32.0362 29.6624 32.2349 29.8298 32.4022L33.959 36.5278H31.1041C30.6268 36.5278 30.1689 36.7175 29.8314 37.055C29.4938 37.3926 29.3041 37.8504 29.3041 38.3278C29.3041 38.8052 29.4938 39.2631 29.8314 39.6006C30.1689 39.9382 30.6268 40.1278 31.1041 40.1278H38.3041C38.5401 40.1277 38.7737 40.0813 38.9917 39.991Z" fill="#37B992"/>
</svg>
