<svg width="53" height="52" viewBox="0 0 53 52" fill="none" xmlns="http://www.w3.org/2000/svg">
<path d="M3.2041 23.2002C2.38952 23.2002 1.70719 22.9242 1.1571 22.3722C0.605102 21.8221 0.329102 21.1398 0.329102 20.3252V3.0752C0.329102 2.26061 0.605102 1.57732 1.1571 1.02532C1.70719 0.475237 2.38952 0.200195 3.2041 0.200195H20.4541C21.2687 0.200195 21.952 0.475237 22.504 1.02532C23.0541 1.57732 23.3291 2.26061 23.3291 3.0752V20.3252C23.3291 21.1398 23.0541 21.8221 22.504 22.3722C21.952 22.9242 21.2687 23.2002 20.4541 23.2002H3.2041ZM31.9541 23.2002C31.1395 23.2002 30.4572 22.9242 29.9071 22.3722C29.3551 21.8221 29.0791 21.1398 29.0791 20.3252V3.0752C29.0791 2.26061 29.3551 1.57732 29.9071 1.02532C30.4572 0.475237 31.1395 0.200195 31.9541 0.200195H49.2041C50.0187 0.200195 50.701 0.475237 51.2511 1.02532C51.8031 1.57732 52.0791 2.26061 52.0791 3.0752V20.3252C52.0791 21.1398 51.8031 21.8221 51.2511 22.3722C50.701 22.9242 50.0187 23.2002 49.2041 23.2002H31.9541ZM3.2041 51.9502C2.38952 51.9502 1.70719 51.6742 1.1571 51.1222C0.605102 50.5721 0.329102 49.8898 0.329102 49.0752V31.8252C0.329102 31.0106 0.605102 30.3273 1.1571 29.7753C1.70719 29.2252 2.38952 28.9502 3.2041 28.9502H20.4541C21.2687 28.9502 21.952 29.2252 22.504 29.7753C23.0541 30.3273 23.3291 31.0106 23.3291 31.8252V49.0752C23.3291 49.8898 23.0541 50.5721 22.504 51.1222C21.952 51.6742 21.2687 51.9502 20.4541 51.9502H3.2041ZM40.5791 51.9502C39.7645 51.9502 39.0822 51.6742 38.5321 51.1222C37.9801 50.5721 37.7041 49.8898 37.7041 49.0752V43.3252H31.8822C31.0676 43.3252 30.3968 43.0492 29.8697 42.4972C29.3426 41.9471 29.0791 41.2648 29.0791 40.4502C29.0791 39.6356 29.3551 38.9533 29.9071 38.4032C30.4572 37.8512 31.1395 37.5752 31.9541 37.5752H37.7041V31.7533C37.7041 30.9387 37.9801 30.2679 38.5321 29.7408C39.0822 29.2137 39.7645 28.9502 40.5791 28.9502C41.3937 28.9502 42.076 29.2252 42.6261 29.7753C43.1781 30.3273 43.4541 31.0106 43.4541 31.8252V37.5752H49.276C50.0906 37.5752 50.7614 37.8512 51.2885 38.4032C51.8156 38.9533 52.0791 39.6356 52.0791 40.4502C52.0791 41.2648 51.8031 41.9471 51.2511 42.4972C50.701 43.0492 50.0187 43.3252 49.2041 43.3252H43.4541V49.1471C43.4541 49.9617 43.1781 50.6325 42.6261 51.1596C42.076 51.6867 41.3937 51.9502 40.5791 51.9502Z" fill="#37B992"/>
</svg>
