<svg width="13" height="12" viewBox="0 0 13 12" fill="none" xmlns="http://www.w3.org/2000/svg">
<path d="M11.4044 12H8.3454V7.35303H9.9054L10.1394 5.54199H8.3454V4.38623C8.3454 3.86223 8.49141 3.50391 9.24341 3.50391H10.2024V1.88379C9.73839 1.83379 9.27138 1.81101 8.80438 1.81201C7.42238 1.81201 6.4754 2.65603 6.4754 4.20703V5.54199H4.91241V7.35205H6.4754V12H0.728394C0.55282 12 0.384464 11.9303 0.260315 11.8062C0.136166 11.682 0.0664062 11.5135 0.0664062 11.3379V0.663086C0.0664062 0.297086 0.362394 0.000976562 0.728394 0.000976562H11.4044C11.7704 0.000976562 12.0664 0.297086 12.0664 0.663086V11.3389C12.0664 11.5144 11.9966 11.683 11.8725 11.8071C11.7483 11.9313 11.58 12.001 11.4044 12.001V12Z" fill="#1A479C"/>
</svg>
