<svg width="61" height="58" viewBox="0 0 61 58" fill="none" xmlns="http://www.w3.org/2000/svg">
<path d="M6.7041 54.728C5.0541 54.728 3.6411 54.141 2.4651 52.967C1.2911 51.791 0.704102 50.378 0.704102 48.728V6.72803C0.704102 5.07803 1.2911 3.66503 2.4651 2.48903C3.6411 1.31503 5.0541 0.728027 6.7041 0.728027H48.7041C50.3541 0.728027 51.7671 1.31503 52.9431 2.48903C54.1171 3.66503 54.7041 5.07803 54.7041 6.72803V23.753C53.3041 23.053 51.8421 22.54 50.3181 22.214C48.7921 21.89 47.2541 21.728 45.7041 21.728C44.2541 21.728 42.8791 21.865 41.5791 22.139C40.2791 22.415 39.0041 22.803 37.7541 23.303C37.9041 22.803 38.0171 22.303 38.0931 21.803C38.1671 21.303 38.2041 20.778 38.2041 20.228C38.2041 17.328 37.1791 14.853 35.1291 12.803C33.0791 10.753 30.6041 9.72803 27.7041 9.72803C24.8041 9.72803 22.3291 10.753 20.2791 12.803C18.2291 14.853 17.2041 17.328 17.2041 20.228C17.2041 23.128 18.2291 25.603 20.2791 27.653C22.3291 29.703 24.8041 30.728 27.7041 30.728H28.4541C27.8041 31.628 27.2421 32.59 26.7681 33.614C26.2921 34.64 25.8791 35.703 25.5291 36.803C21.8291 37.053 18.3921 37.928 15.2181 39.428C12.0421 40.928 9.2041 42.878 6.7041 45.278V48.728H25.6041C25.9541 49.828 26.3541 50.878 26.8041 51.878C27.2541 52.878 27.8041 53.828 28.4541 54.728H6.7041ZM42.7041 57.728L41.8041 53.228C41.2041 52.978 40.6421 52.716 40.1181 52.442C39.5921 52.166 39.0541 51.828 38.5041 51.428L34.1541 52.778L31.1541 47.678L34.6041 44.678C34.5041 43.978 34.4541 43.328 34.4541 42.728C34.4541 42.128 34.5041 41.478 34.6041 40.778L31.1541 37.778L34.1541 32.678L38.5041 34.028C39.0541 33.628 39.5921 33.29 40.1181 33.014C40.6421 32.74 41.2041 32.478 41.8041 32.228L42.7041 27.728H48.7041L49.6041 32.228C50.2041 32.478 50.7671 32.753 51.2931 33.053C51.8171 33.353 52.3541 33.728 52.9041 34.178L57.2541 32.678L60.2541 37.928L56.8041 40.928C56.9041 41.528 56.9541 42.153 56.9541 42.803C56.9541 43.453 56.9041 44.078 56.8041 44.678L60.2541 47.678L57.2541 52.778L52.9041 51.428C52.3541 51.828 51.8171 52.166 51.2931 52.442C50.7671 52.716 50.2041 52.978 49.6041 53.228L48.7041 57.728H42.7041ZM45.7041 48.728C47.3541 48.728 48.7671 48.141 49.9431 46.967C51.1171 45.791 51.7041 44.378 51.7041 42.728C51.7041 41.078 51.1171 39.665 49.9431 38.489C48.7671 37.315 47.3541 36.728 45.7041 36.728C44.0541 36.728 42.6411 37.315 41.4651 38.489C40.2911 39.665 39.7041 41.078 39.7041 42.728C39.7041 44.378 40.2911 45.791 41.4651 46.967C42.6411 48.141 44.0541 48.728 45.7041 48.728Z" fill="#37B992"/>
</svg>
