<svg width="48" height="36" viewBox="0 0 48 36" fill="none" xmlns="http://www.w3.org/2000/svg">
<path d="M40.5771 20.348C39.9157 20.348 39.3617 20.1238 38.915 19.6756C38.4668 19.229 38.2427 18.6749 38.2427 18.0135C38.2427 17.3521 38.4668 16.7972 38.915 16.349C39.3617 15.9024 39.9157 15.679 40.5771 15.679H45.2461C45.9075 15.679 46.4615 15.9024 46.9082 16.349C47.3564 16.7972 47.5805 17.3521 47.5805 18.0135C47.5805 18.6749 47.3564 19.229 46.9082 19.6756C46.4615 20.1238 45.9075 20.348 45.2461 20.348H40.5771ZM39.1765 35.2885L35.4413 32.4871C34.8966 32.0981 34.5854 31.5923 34.5075 30.9697C34.4297 30.3472 34.5854 29.7636 34.9744 29.2189C35.3635 28.6742 35.8693 28.3629 36.4918 28.2851C37.1144 28.2073 37.698 28.3629 38.2427 28.752L41.9778 31.5534C42.5225 31.9424 42.8338 32.4482 42.9116 33.0708C42.9894 33.6933 42.8338 34.2769 42.4447 34.8216C42.0556 35.3663 41.5498 35.6776 40.9273 35.7554C40.3048 35.8332 39.7212 35.6776 39.1765 35.2885ZM38.2427 7.27499C37.698 7.66407 37.1144 7.8197 36.4918 7.74188C35.8693 7.66407 35.3635 7.35281 34.9744 6.8081C34.5854 6.26339 34.4297 5.67978 34.5075 5.05726C34.5854 4.43474 34.8966 3.92894 35.4413 3.53986L39.1765 0.738512C39.7212 0.349435 40.3048 0.193805 40.9273 0.271621C41.5498 0.349436 42.0556 0.660697 42.4447 1.2054C42.8338 1.75011 42.9894 2.33372 42.9116 2.95625C42.8338 3.57877 42.5225 4.08457 41.9778 4.47364L38.2427 7.27499ZM7.89473 34.3547V25.0169H5.56027C4.27632 25.0169 3.17757 24.5593 2.26402 23.6442C1.34891 22.7307 0.891357 21.6319 0.891357 20.348V15.679C0.891357 14.3951 1.34891 13.2956 2.26402 12.3805C3.17757 11.4669 4.27632 11.0101 5.56027 11.0101H14.8981L23.0103 6.10776C23.7885 5.64087 24.5768 5.64087 25.3751 6.10776C26.172 6.57466 26.5704 7.25554 26.5704 8.15042V27.8766C26.5704 28.7715 26.172 29.4523 25.3751 29.9192C24.5768 30.3861 23.7885 30.3861 23.0103 29.9192L14.8981 25.0169H12.5636V34.3547H7.89473ZM28.9049 25.8339V10.1931C29.9554 11.1268 30.802 12.2653 31.4447 13.6084C32.0859 14.9499 32.4065 16.4183 32.4065 18.0135C32.4065 19.6087 32.0859 21.0771 31.4447 22.4186C30.802 23.7617 29.9554 24.9002 28.9049 25.8339Z" fill="#37B992"/>
</svg>
