<svg width="51" height="42" viewBox="0 0 51 42" fill="none" xmlns="http://www.w3.org/2000/svg">
<path d="M42.4503 4.16906C41.7094 3.42164 41.7094 2.21306 42.4503 1.4736C43.1912 0.734136 44.3893 0.726184 45.1223 1.4736L50.1669 6.56237C50.5216 6.92018 50.7186 7.4052 50.7186 7.91408C50.7186 8.42296 50.5216 8.90798 50.1669 9.26578L45.1223 14.3546C44.3814 15.102 43.1834 15.102 42.4503 14.3546C41.7173 13.6071 41.7094 12.3986 42.4503 11.6591L44.2632 9.83032L30.5484 9.81442C29.5001 9.81442 28.6567 8.96364 28.6567 7.90613C28.6567 6.84862 29.5001 5.99784 30.5484 5.99784H44.2711L42.4503 4.16906ZM8.55742 30.8851L6.74455 32.7139H20.4593C21.5077 32.7139 22.351 33.5647 22.351 34.6222C22.351 35.6797 21.5077 36.5305 20.4593 36.5305H6.73666L8.54954 38.3593C9.29045 39.1067 9.29045 40.3153 8.54954 41.0547C7.80863 41.7942 6.61055 41.8021 5.87752 41.0547L0.832995 35.9739C0.478302 35.6161 0.28125 35.1311 0.28125 34.6222C0.28125 34.1133 0.478302 33.6283 0.832995 33.2705L5.87752 28.1817C6.61843 27.4343 7.81651 27.4343 8.54954 28.1817C9.28257 28.9291 9.29045 30.1377 8.54954 30.8772L8.55742 30.8851ZM7.84804 5.99784H26.9148C26.6231 6.57032 26.4497 7.21437 26.4497 7.90613C26.4497 10.1881 28.2862 12.0408 30.5484 12.0408H39.8019C39.4867 13.3925 39.8492 14.8634 40.8897 15.9209C42.4897 17.535 45.0829 17.535 46.683 15.9209L48.2042 14.3864V31.4417C48.2042 34.2485 45.9421 36.5305 43.1597 36.5305H24.093C24.3846 35.958 24.558 35.3139 24.558 34.6222C24.558 32.3402 22.7215 30.4876 20.4593 30.4876H11.2058C11.5211 29.1359 11.1585 27.6649 10.1181 26.6074C8.51801 24.9933 5.92481 24.9933 4.32475 26.6074L2.80351 28.142V11.0866C2.80351 8.27983 5.06567 5.99784 7.84804 5.99784ZM12.8926 11.0866H7.84804V16.1754C10.6304 16.1754 12.8926 13.8934 12.8926 11.0866ZM43.1597 26.3529C40.3773 26.3529 38.1152 28.6349 38.1152 31.4417H43.1597V26.3529ZM25.5039 28.8973C29.6814 28.8973 33.0707 25.4783 33.0707 21.2642C33.0707 17.05 29.6814 13.631 25.5039 13.631C21.3264 13.631 17.9371 17.05 17.9371 21.2642C17.9371 25.4783 21.3264 28.8973 25.5039 28.8973Z" fill="#37B992"/>
</svg>
