<svg width="55" height="64" viewBox="0 0 55 64" fill="none" xmlns="http://www.w3.org/2000/svg">
<path d="M12.7041 30.728H36.7041V36.728H12.7041V30.728ZM18.7041 54.728H6.7041V6.72803H27.7041V21.728H42.7041V31.028L48.7041 25.028V18.728L30.7041 0.728027H6.7041C5.1128 0.728027 3.58668 1.36017 2.46146 2.48539C1.33624 3.6106 0.704102 5.13673 0.704102 6.72803V54.728C0.704102 56.3193 1.33624 57.8454 2.46146 58.9707C3.58668 60.0959 5.1128 60.728 6.7041 60.728H18.7041V54.728ZM12.7041 48.728H25.0041L27.7041 46.028V42.728H12.7041V48.728ZM49.3041 33.728C49.6041 33.728 50.2041 34.028 50.5041 34.328L54.4041 38.228C55.0041 38.828 55.0041 40.028 54.4041 40.628L51.4041 43.628L45.1041 37.328L48.1041 34.328C48.4041 34.028 48.7041 33.728 49.3041 33.728ZM49.3041 45.428L31.0041 63.728H24.7041V57.428L43.0041 39.128L49.3041 45.428Z" fill="#37B992"/>
</svg>
