<svg width="52" height="52" viewBox="0 0 52 52" fill="none" xmlns="http://www.w3.org/2000/svg">
<path d="M26.1095 0.489749C19.3493 0.489749 12.866 3.17523 8.08579 7.95542C3.3056 12.7356 0.620117 19.219 0.620117 25.9792C0.620117 26.7985 0.620117 27.5996 0.747564 28.4007C1.21673 33.3169 3.104 37.9911 6.17993 41.8548C9.25587 45.7186 13.388 48.6055 18.074 50.1648C22.76 51.7241 27.7981 51.8884 32.5758 50.6379C37.3535 49.3874 41.665 46.7759 44.9862 43.1209C48.3075 39.4659 50.4954 34.9247 51.284 30.0495C52.0727 25.1742 51.428 20.1749 49.4285 15.6591C47.429 11.1434 44.1607 7.30576 40.0209 4.61277C35.8811 1.91977 31.0482 0.487392 26.1095 0.489749ZM26.1095 4.13109C31.8664 4.1361 37.3886 6.41304 41.476 10.467V12.2877C34.2799 9.81126 26.4575 9.84334 19.282 12.3787C18.7088 11.8201 17.9892 11.4351 17.2064 11.2681H16.7513C16.5328 10.5034 16.3325 9.73876 16.1687 8.95588C16.0048 8.17299 15.9138 7.48113 15.8227 6.73465C18.9834 5.02899 22.518 4.13439 26.1095 4.13109ZM20.6475 14.8184C27.2596 12.6043 34.4257 12.6877 40.9844 15.0551C40.0973 19.6807 38.1601 24.041 35.3221 27.7998C34.5283 27.4637 33.6496 27.383 32.8078 27.5689C31.9661 27.7549 31.2031 28.1983 30.6248 28.8376C29.9876 28.4735 29.3503 28.1094 28.8041 27.6906C25.1287 25.2383 22.0593 21.9821 19.8282 18.1685C20.1888 17.7213 20.4513 17.2034 20.5988 16.6482C20.7462 16.093 20.7752 15.513 20.6839 14.9459L20.6475 14.8184ZM13.3648 8.26402C13.3648 8.64636 13.4741 9.04691 13.5469 9.42925C13.7108 10.2303 13.9292 11.0132 14.1477 11.7961C13.4505 12.209 12.8894 12.8168 12.5335 13.5448C12.1776 14.2727 12.0426 15.0889 12.145 15.8926C9.27104 17.7694 6.70402 20.0785 4.53456 22.7384C4.96988 19.8576 5.97696 17.093 7.49655 14.6073C9.01615 12.1215 11.0176 9.96481 13.383 8.26402H13.3648ZM13.3648 36.8668C12.6541 37.1054 12.0189 37.5273 11.5234 38.0899C11.0279 38.6525 10.6896 39.336 10.5428 40.0712H9.37755C6.4373 36.5643 4.67877 32.2189 4.3525 27.6542L4.55277 27.3083C6.83265 23.7731 9.81317 20.743 13.3102 18.4052C13.8345 18.9527 14.4971 19.3484 15.2278 19.5503C15.9585 19.7522 16.7303 19.7529 17.4613 19.5522C19.8966 23.6675 23.2255 27.183 27.2019 29.839C27.9484 30.3306 28.7131 30.7857 29.4778 31.2227C29.4166 31.9191 29.5292 32.6197 29.8055 33.2619C26.4736 35.9077 22.6303 37.8355 18.5173 38.9241C18.0404 38.033 17.2621 37.3404 16.3215 36.9702C15.381 36.6 14.3395 36.5762 13.383 36.9032L13.3648 36.8668ZM26.1095 47.7908C22.4067 47.7918 18.7652 46.8454 15.5314 45.0416L16.0412 44.9324C16.7657 44.6946 17.4131 44.2668 17.9159 43.6936C18.4187 43.1203 18.7585 42.4227 18.8997 41.6734C23.5551 40.4861 27.9013 38.313 31.6444 35.301C32.5335 35.8206 33.5834 35.9928 34.5919 35.7844C35.6004 35.5759 36.4961 35.0017 37.1064 34.1722C39.6751 34.84 42.3176 35.1825 44.9717 35.1918H45.9367C44.1802 38.9689 41.3805 42.1652 37.8676 44.4039C34.3548 46.6426 30.2751 47.8304 26.1095 47.8272V47.7908ZM37.9621 31.5868C37.9604 30.8237 37.7528 30.0752 37.3613 29.4202C40.3913 25.4623 42.4999 20.8781 43.5334 16.0019C44.4437 16.4267 45.3419 16.9001 46.228 17.422C48.2304 22.1538 48.5012 27.4399 46.9926 32.3515C43.9699 32.5853 40.9292 32.3457 37.9803 31.6415L37.9621 31.5868Z" fill="#37B992"/>
</svg>
