<svg width="49" height="61" viewBox="0 0 49 61" fill="none" xmlns="http://www.w3.org/2000/svg">
<path d="M24.7041 60.728C17.7541 58.978 12.0171 54.99 7.4931 48.764C2.9671 42.54 0.704102 35.628 0.704102 28.028V9.72803L24.7041 0.728027L48.7041 9.72803V28.028C48.7041 35.628 46.4421 42.54 41.9181 48.764C37.3921 54.99 31.6541 58.978 24.7041 60.728ZM24.7041 54.428C29.5541 52.928 33.6041 49.966 36.8541 45.542C40.1041 41.116 42.0041 36.178 42.5541 30.728H24.7041V7.10303L6.7041 13.853V29.378C6.7041 29.728 6.7541 30.178 6.8541 30.728H24.7041V54.428Z" fill="#37B992"/>
</svg>
