<svg width="1056" height="61" viewBox="0 0 1056 61" fill="none" xmlns="http://www.w3.org/2000/svg">
<path d="M6.08313 60.4014L11.8566 54.6279L6.08313 48.8544L0.309627 54.6279L6.08313 60.4014ZM6.08313 1.18604V0.186035C5.53085 0.186035 5.08313 0.63375 5.08313 1.18604L6.08313 1.18604ZM1050.04 1.18604H1051.04C1051.04 0.63375 1050.6 0.186035 1050.04 0.186035V1.18604ZM1050.04 60.4014L1055.82 54.6279L1050.04 48.8544L1044.27 54.6279L1050.04 60.4014ZM7.08313 51.9558C7.08313 51.4035 6.63541 50.9558 6.08313 50.9558C5.53085 50.9558 5.08313 51.4035 5.08313 51.9558H7.08313ZM5.08313 46.6116C5.08313 47.1639 5.53085 47.6116 6.08313 47.6116C6.63541 47.6116 7.08313 47.1639 7.08313 46.6116H5.08313ZM7.08313 41.2675C7.08313 40.7152 6.63541 40.2675 6.08313 40.2675C5.53085 40.2675 5.08313 40.7152 5.08313 41.2675H7.08313ZM5.08313 35.9233C5.08313 36.4756 5.53085 36.9233 6.08313 36.9233C6.63541 36.9233 7.08313 36.4756 7.08313 35.9233H5.08313ZM7.08313 30.5791C7.08313 30.0268 6.63541 29.5791 6.08313 29.5791C5.53085 29.5791 5.08313 30.0268 5.08313 30.5791H7.08313ZM5.08313 25.2349C5.08313 25.7872 5.53085 26.2349 6.08313 26.2349C6.63541 26.2349 7.08313 25.7872 7.08313 25.2349H5.08313ZM7.08313 19.8907C7.08313 19.3384 6.63541 18.8907 6.08313 18.8907C5.53085 18.8907 5.08313 19.3384 5.08313 19.8907H7.08313ZM5.08313 14.5465C5.08313 15.0988 5.53085 15.5465 6.08313 15.5465C6.63541 15.5465 7.08313 15.0988 7.08313 14.5465H5.08313ZM7.08313 9.20232C7.08313 8.65004 6.63541 8.20232 6.08313 8.20232C5.53085 8.20232 5.08313 8.65004 5.08313 9.20232H7.08313ZM5.08313 3.85813C5.08313 4.41042 5.53085 4.85813 6.08313 4.85813C6.63541 4.85813 7.08313 4.41042 7.08313 3.85813H5.08313ZM8.59265 2.18604C9.14494 2.18604 9.59265 1.73832 9.59265 1.18604C9.59265 0.63375 9.14494 0.186035 8.59265 0.186035V2.18604ZM13.6117 0.186035C13.0594 0.186035 12.6117 0.63375 12.6117 1.18604C12.6117 1.73832 13.0594 2.18604 13.6117 2.18604V0.186035ZM18.6307 2.18604C19.183 2.18604 19.6307 1.73832 19.6307 1.18604C19.6307 0.63375 19.183 0.186035 18.6307 0.186035V2.18604ZM23.6498 0.186035C23.0975 0.186035 22.6498 0.63375 22.6498 1.18604C22.6498 1.73832 23.0975 2.18604 23.6498 2.18604V0.186035ZM28.6688 2.18604C29.2211 2.18604 29.6688 1.73832 29.6688 1.18604C29.6688 0.63375 29.2211 0.186035 28.6688 0.186035V2.18604ZM33.6879 0.186035C33.1356 0.186035 32.6879 0.63375 32.6879 1.18604C32.6879 1.73832 33.1356 2.18604 33.6879 2.18604V0.186035ZM38.7069 2.18604C39.2592 2.18604 39.7069 1.73832 39.7069 1.18604C39.7069 0.63375 39.2592 0.186035 38.7069 0.186035V2.18604ZM43.7259 0.186035C43.1737 0.186035 42.7259 0.63375 42.7259 1.18604C42.7259 1.73832 43.1737 2.18604 43.7259 2.18604V0.186035ZM48.745 2.18604C49.2973 2.18604 49.745 1.73832 49.745 1.18604C49.745 0.63375 49.2973 0.186035 48.745 0.186035V2.18604ZM53.764 0.186035C53.2118 0.186035 52.764 0.63375 52.764 1.18604C52.764 1.73832 53.2118 2.18604 53.764 2.18604V0.186035ZM58.7831 2.18604C59.3354 2.18604 59.7831 1.73832 59.7831 1.18604C59.7831 0.63375 59.3354 0.186035 58.7831 0.186035V2.18604ZM63.8021 0.186035C63.2498 0.186035 62.8021 0.63375 62.8021 1.18604C62.8021 1.73832 63.2498 2.18604 63.8021 2.18604V0.186035ZM68.8212 2.18604C69.3734 2.18604 69.8212 1.73832 69.8212 1.18604C69.8212 0.63375 69.3734 0.186035 68.8212 0.186035V2.18604ZM73.8402 0.186035C73.2879 0.186035 72.8402 0.63375 72.8402 1.18604C72.8402 1.73832 73.2879 2.18604 73.8402 2.18604V0.186035ZM78.8592 2.18604C79.4115 2.18604 79.8592 1.73832 79.8592 1.18604C79.8592 0.63375 79.4115 0.186035 78.8592 0.186035V2.18604ZM83.8783 0.186035C83.326 0.186035 82.8783 0.63375 82.8783 1.18604C82.8783 1.73832 83.326 2.18604 83.8783 2.18604V0.186035ZM88.8973 2.18604C89.4496 2.18604 89.8973 1.73832 89.8973 1.18604C89.8973 0.63375 89.4496 0.186035 88.8973 0.186035V2.18604ZM93.9164 0.186035C93.3641 0.186035 92.9164 0.63375 92.9164 1.18604C92.9164 1.73832 93.3641 2.18604 93.9164 2.18604V0.186035ZM98.9354 2.18604C99.4877 2.18604 99.9354 1.73832 99.9354 1.18604C99.9354 0.63375 99.4877 0.186035 98.9354 0.186035V2.18604ZM103.954 0.186035C103.402 0.186035 102.954 0.63375 102.954 1.18604C102.954 1.73832 103.402 2.18604 103.954 2.18604V0.186035ZM108.974 2.18604C109.526 2.18604 109.974 1.73832 109.974 1.18604C109.974 0.63375 109.526 0.186035 108.974 0.186035V2.18604ZM113.993 0.186035C113.44 0.186035 112.993 0.63375 112.993 1.18604C112.993 1.73832 113.44 2.18604 113.993 2.18604V0.186035ZM119.012 2.18604C119.564 2.18604 120.012 1.73832 120.012 1.18604C120.012 0.63375 119.564 0.186035 119.012 0.186035V2.18604ZM124.031 0.186035C123.478 0.186035 123.031 0.63375 123.031 1.18604C123.031 1.73832 123.478 2.18604 124.031 2.18604V0.186035ZM129.05 2.18604C129.602 2.18604 130.05 1.73832 130.05 1.18604C130.05 0.63375 129.602 0.186035 129.05 0.186035V2.18604ZM134.069 0.186035C133.516 0.186035 133.069 0.63375 133.069 1.18604C133.069 1.73832 133.516 2.18604 134.069 2.18604V0.186035ZM139.088 2.18604C139.64 2.18604 140.088 1.73832 140.088 1.18604C140.088 0.63375 139.64 0.186035 139.088 0.186035V2.18604ZM144.107 0.186035C143.555 0.186035 143.107 0.63375 143.107 1.18604C143.107 1.73832 143.555 2.18604 144.107 2.18604V0.186035ZM149.126 2.18604C149.678 2.18604 150.126 1.73832 150.126 1.18604C150.126 0.63375 149.678 0.186035 149.126 0.186035V2.18604ZM154.145 0.186035C153.593 0.186035 153.145 0.63375 153.145 1.18604C153.145 1.73832 153.593 2.18604 154.145 2.18604V0.186035ZM159.164 2.18604C159.716 2.18604 160.164 1.73832 160.164 1.18604C160.164 0.63375 159.716 0.186035 159.164 0.186035V2.18604ZM164.183 0.186035C163.631 0.186035 163.183 0.63375 163.183 1.18604C163.183 1.73832 163.631 2.18604 164.183 2.18604V0.186035ZM169.202 2.18604C169.754 2.18604 170.202 1.73832 170.202 1.18604C170.202 0.63375 169.754 0.186035 169.202 0.186035V2.18604ZM174.221 0.186035C173.669 0.186035 173.221 0.63375 173.221 1.18604C173.221 1.73832 173.669 2.18604 174.221 2.18604V0.186035ZM179.24 2.18604C179.792 2.18604 180.24 1.73832 180.24 1.18604C180.24 0.63375 179.792 0.186035 179.24 0.186035V2.18604ZM184.259 0.186035C183.707 0.186035 183.259 0.63375 183.259 1.18604C183.259 1.73832 183.707 2.18604 184.259 2.18604V0.186035ZM189.278 2.18604C189.83 2.18604 190.278 1.73832 190.278 1.18604C190.278 0.63375 189.83 0.186035 189.278 0.186035V2.18604ZM194.297 0.186035C193.745 0.186035 193.297 0.63375 193.297 1.18604C193.297 1.73832 193.745 2.18604 194.297 2.18604V0.186035ZM199.316 2.18604C199.869 2.18604 200.316 1.73832 200.316 1.18604C200.316 0.63375 199.869 0.186035 199.316 0.186035V2.18604ZM204.335 0.186035C203.783 0.186035 203.335 0.63375 203.335 1.18604C203.335 1.73832 203.783 2.18604 204.335 2.18604V0.186035ZM209.354 2.18604C209.907 2.18604 210.354 1.73832 210.354 1.18604C210.354 0.63375 209.907 0.186035 209.354 0.186035V2.18604ZM214.373 0.186035C213.821 0.186035 213.373 0.63375 213.373 1.18604C213.373 1.73832 213.821 2.18604 214.373 2.18604V0.186035ZM219.392 2.18604C219.945 2.18604 220.392 1.73832 220.392 1.18604C220.392 0.63375 219.945 0.186035 219.392 0.186035V2.18604ZM224.411 0.186035C223.859 0.186035 223.411 0.63375 223.411 1.18604C223.411 1.73832 223.859 2.18604 224.411 2.18604V0.186035ZM229.431 2.18604C229.983 2.18604 230.431 1.73832 230.431 1.18604C230.431 0.63375 229.983 0.186035 229.431 0.186035V2.18604ZM234.45 0.186035C233.897 0.186035 233.45 0.63375 233.45 1.18604C233.45 1.73832 233.897 2.18604 234.45 2.18604V0.186035ZM239.469 2.18604C240.021 2.18604 240.469 1.73832 240.469 1.18604C240.469 0.63375 240.021 0.186035 239.469 0.186035V2.18604ZM244.488 0.186035C243.935 0.186035 243.488 0.63375 243.488 1.18604C243.488 1.73832 243.935 2.18604 244.488 2.18604V0.186035ZM249.507 2.18604C250.059 2.18604 250.507 1.73832 250.507 1.18604C250.507 0.63375 250.059 0.186035 249.507 0.186035V2.18604ZM254.526 0.186035C253.973 0.186035 253.526 0.63375 253.526 1.18604C253.526 1.73832 253.973 2.18604 254.526 2.18604V0.186035ZM259.545 2.18604C260.097 2.18604 260.545 1.73832 260.545 1.18604C260.545 0.63375 260.097 0.186035 259.545 0.186035V2.18604ZM264.564 0.186035C264.012 0.186035 263.564 0.63375 263.564 1.18604C263.564 1.73832 264.012 2.18604 264.564 2.18604V0.186035ZM269.583 2.18604C270.135 2.18604 270.583 1.73832 270.583 1.18604C270.583 0.63375 270.135 0.186035 269.583 0.186035V2.18604ZM274.602 0.186035C274.05 0.186035 273.602 0.63375 273.602 1.18604C273.602 1.73832 274.05 2.18604 274.602 2.18604V0.186035ZM279.621 2.18604C280.173 2.18604 280.621 1.73832 280.621 1.18604C280.621 0.63375 280.173 0.186035 279.621 0.186035V2.18604ZM284.64 0.186035C284.088 0.186035 283.64 0.63375 283.64 1.18604C283.64 1.73832 284.088 2.18604 284.64 2.18604V0.186035ZM289.659 2.18604C290.211 2.18604 290.659 1.73832 290.659 1.18604C290.659 0.63375 290.211 0.186035 289.659 0.186035V2.18604ZM294.678 0.186035C294.126 0.186035 293.678 0.63375 293.678 1.18604C293.678 1.73832 294.126 2.18604 294.678 2.18604V0.186035ZM299.697 2.18604C300.249 2.18604 300.697 1.73832 300.697 1.18604C300.697 0.63375 300.249 0.186035 299.697 0.186035V2.18604ZM304.716 0.186035C304.164 0.186035 303.716 0.63375 303.716 1.18604C303.716 1.73832 304.164 2.18604 304.716 2.18604V0.186035ZM309.735 2.18604C310.287 2.18604 310.735 1.73832 310.735 1.18604C310.735 0.63375 310.287 0.186035 309.735 0.186035V2.18604ZM314.754 0.186035C314.202 0.186035 313.754 0.63375 313.754 1.18604C313.754 1.73832 314.202 2.18604 314.754 2.18604V0.186035ZM319.773 2.18604C320.326 2.18604 320.773 1.73832 320.773 1.18604C320.773 0.63375 320.326 0.186035 319.773 0.186035V2.18604ZM324.792 0.186035C324.24 0.186035 323.792 0.63375 323.792 1.18604C323.792 1.73832 324.24 2.18604 324.792 2.18604V0.186035ZM329.811 2.18604C330.364 2.18604 330.811 1.73832 330.811 1.18604C330.811 0.63375 330.364 0.186035 329.811 0.186035V2.18604ZM334.83 0.186035C334.278 0.186035 333.83 0.63375 333.83 1.18604C333.83 1.73832 334.278 2.18604 334.83 2.18604V0.186035ZM339.849 2.18604C340.402 2.18604 340.849 1.73832 340.849 1.18604C340.849 0.63375 340.402 0.186035 339.849 0.186035V2.18604ZM344.868 0.186035C344.316 0.186035 343.868 0.63375 343.868 1.18604C343.868 1.73832 344.316 2.18604 344.868 2.18604V0.186035ZM349.888 2.18604C350.44 2.18604 350.888 1.73832 350.888 1.18604C350.888 0.63375 350.44 0.186035 349.888 0.186035V2.18604ZM354.907 0.186035C354.354 0.186035 353.907 0.63375 353.907 1.18604C353.907 1.73832 354.354 2.18604 354.907 2.18604V0.186035ZM359.926 2.18604C360.478 2.18604 360.926 1.73832 360.926 1.18604C360.926 0.63375 360.478 0.186035 359.926 0.186035V2.18604ZM364.945 0.186035C364.392 0.186035 363.945 0.63375 363.945 1.18604C363.945 1.73832 364.392 2.18604 364.945 2.18604V0.186035ZM369.964 2.18604C370.516 2.18604 370.964 1.73832 370.964 1.18604C370.964 0.63375 370.516 0.186035 369.964 0.186035V2.18604ZM374.983 0.186035C374.43 0.186035 373.983 0.63375 373.983 1.18604C373.983 1.73832 374.43 2.18604 374.983 2.18604V0.186035ZM380.002 2.18604C380.554 2.18604 381.002 1.73832 381.002 1.18604C381.002 0.63375 380.554 0.186035 380.002 0.186035V2.18604ZM385.021 0.186035C384.469 0.186035 384.021 0.63375 384.021 1.18604C384.021 1.73832 384.469 2.18604 385.021 2.18604V0.186035ZM390.04 2.18604C390.592 2.18604 391.04 1.73832 391.04 1.18604C391.04 0.63375 390.592 0.186035 390.04 0.186035V2.18604ZM395.059 0.186035C394.507 0.186035 394.059 0.63375 394.059 1.18604C394.059 1.73832 394.507 2.18604 395.059 2.18604V0.186035ZM400.078 2.18604C400.63 2.18604 401.078 1.73832 401.078 1.18604C401.078 0.63375 400.63 0.186035 400.078 0.186035V2.18604ZM405.097 0.186035C404.545 0.186035 404.097 0.63375 404.097 1.18604C404.097 1.73832 404.545 2.18604 405.097 2.18604V0.186035ZM410.116 2.18604C410.668 2.18604 411.116 1.73832 411.116 1.18604C411.116 0.63375 410.668 0.186035 410.116 0.186035V2.18604ZM415.135 0.186035C414.583 0.186035 414.135 0.63375 414.135 1.18604C414.135 1.73832 414.583 2.18604 415.135 2.18604V0.186035ZM420.154 2.18604C420.706 2.18604 421.154 1.73832 421.154 1.18604C421.154 0.63375 420.706 0.186035 420.154 0.186035V2.18604ZM425.173 0.186035C424.621 0.186035 424.173 0.63375 424.173 1.18604C424.173 1.73832 424.621 2.18604 425.173 2.18604V0.186035ZM430.192 2.18604C430.745 2.18604 431.192 1.73832 431.192 1.18604C431.192 0.63375 430.745 0.186035 430.192 0.186035V2.18604ZM435.211 0.186035C434.659 0.186035 434.211 0.63375 434.211 1.18604C434.211 1.73832 434.659 2.18604 435.211 2.18604V0.186035ZM440.23 2.18604C440.783 2.18604 441.23 1.73832 441.23 1.18604C441.23 0.63375 440.783 0.186035 440.23 0.186035V2.18604ZM445.249 0.186035C444.697 0.186035 444.249 0.63375 444.249 1.18604C444.249 1.73832 444.697 2.18604 445.249 2.18604V0.186035ZM450.268 2.18604C450.821 2.18604 451.268 1.73832 451.268 1.18604C451.268 0.63375 450.821 0.186035 450.268 0.186035V2.18604ZM455.287 0.186035C454.735 0.186035 454.287 0.63375 454.287 1.18604C454.287 1.73832 454.735 2.18604 455.287 2.18604V0.186035ZM460.306 2.18604C460.859 2.18604 461.306 1.73832 461.306 1.18604C461.306 0.63375 460.859 0.186035 460.306 0.186035V2.18604ZM465.326 0.186035C464.773 0.186035 464.326 0.63375 464.326 1.18604C464.326 1.73832 464.773 2.18604 465.326 2.18604V0.186035ZM470.345 2.18604C470.897 2.18604 471.345 1.73832 471.345 1.18604C471.345 0.63375 470.897 0.186035 470.345 0.186035V2.18604ZM475.364 0.186035C474.811 0.186035 474.364 0.63375 474.364 1.18604C474.364 1.73832 474.811 2.18604 475.364 2.18604V0.186035ZM480.383 2.18604C480.935 2.18604 481.383 1.73832 481.383 1.18604C481.383 0.63375 480.935 0.186035 480.383 0.186035V2.18604ZM485.402 0.186035C484.849 0.186035 484.402 0.63375 484.402 1.18604C484.402 1.73832 484.849 2.18604 485.402 2.18604V0.186035ZM490.421 2.18604C490.973 2.18604 491.421 1.73832 491.421 1.18604C491.421 0.63375 490.973 0.186035 490.421 0.186035V2.18604ZM495.44 0.186035C494.888 0.186035 494.44 0.63375 494.44 1.18604C494.44 1.73832 494.888 2.18604 495.44 2.18604V0.186035ZM500.459 2.18604C501.011 2.18604 501.459 1.73832 501.459 1.18604C501.459 0.63375 501.011 0.186035 500.459 0.186035V2.18604ZM505.478 0.186035C504.926 0.186035 504.478 0.63375 504.478 1.18604C504.478 1.73832 504.926 2.18604 505.478 2.18604V0.186035ZM510.497 2.18604C511.049 2.18604 511.497 1.73832 511.497 1.18604C511.497 0.63375 511.049 0.186035 510.497 0.186035V2.18604ZM515.516 0.186035C514.964 0.186035 514.516 0.63375 514.516 1.18604C514.516 1.73832 514.964 2.18604 515.516 2.18604V0.186035ZM520.535 2.18604C521.087 2.18604 521.535 1.73832 521.535 1.18604C521.535 0.63375 521.087 0.186035 520.535 0.186035V2.18604ZM525.554 0.186035C525.002 0.186035 524.554 0.63375 524.554 1.18604C524.554 1.73832 525.002 2.18604 525.554 2.18604V0.186035ZM530.573 2.18604C531.125 2.18604 531.573 1.73832 531.573 1.18604C531.573 0.63375 531.125 0.186035 530.573 0.186035V2.18604ZM535.592 0.186035C535.04 0.186035 534.592 0.63375 534.592 1.18604C534.592 1.73832 535.04 2.18604 535.592 2.18604V0.186035ZM540.611 2.18604C541.163 2.18604 541.611 1.73832 541.611 1.18604C541.611 0.63375 541.163 0.186035 540.611 0.186035V2.18604ZM545.63 0.186035C545.078 0.186035 544.63 0.63375 544.63 1.18604C544.63 1.73832 545.078 2.18604 545.63 2.18604V0.186035ZM550.649 2.18604C551.202 2.18604 551.649 1.73832 551.649 1.18604C551.649 0.63375 551.202 0.186035 550.649 0.186035V2.18604ZM555.668 0.186035C555.116 0.186035 554.668 0.63375 554.668 1.18604C554.668 1.73832 555.116 2.18604 555.668 2.18604V0.186035ZM560.687 2.18604C561.24 2.18604 561.687 1.73832 561.687 1.18604C561.687 0.63375 561.24 0.186035 560.687 0.186035V2.18604ZM565.706 0.186035C565.154 0.186035 564.706 0.63375 564.706 1.18604C564.706 1.73832 565.154 2.18604 565.706 2.18604V0.186035ZM570.725 2.18604C571.278 2.18604 571.725 1.73832 571.725 1.18604C571.725 0.63375 571.278 0.186035 570.725 0.186035V2.18604ZM575.744 0.186035C575.192 0.186035 574.744 0.63375 574.744 1.18604C574.744 1.73832 575.192 2.18604 575.744 2.18604V0.186035ZM580.763 2.18604C581.316 2.18604 581.763 1.73832 581.763 1.18604C581.763 0.63375 581.316 0.186035 580.763 0.186035V2.18604ZM585.783 0.186035C585.23 0.186035 584.783 0.63375 584.783 1.18604C584.783 1.73832 585.23 2.18604 585.783 2.18604V0.186035ZM590.802 2.18604C591.354 2.18604 591.802 1.73832 591.802 1.18604C591.802 0.63375 591.354 0.186035 590.802 0.186035V2.18604ZM595.821 0.186035C595.268 0.186035 594.821 0.63375 594.821 1.18604C594.821 1.73832 595.268 2.18604 595.821 2.18604V0.186035ZM600.84 2.18604C601.392 2.18604 601.84 1.73832 601.84 1.18604C601.84 0.63375 601.392 0.186035 600.84 0.186035V2.18604ZM605.859 0.186035C605.306 0.186035 604.859 0.63375 604.859 1.18604C604.859 1.73832 605.306 2.18604 605.859 2.18604V0.186035ZM610.878 2.18604C611.43 2.18604 611.878 1.73832 611.878 1.18604C611.878 0.63375 611.43 0.186035 610.878 0.186035V2.18604ZM615.897 0.186035C615.344 0.186035 614.897 0.63375 614.897 1.18604C614.897 1.73832 615.344 2.18604 615.897 2.18604V0.186035ZM620.916 2.18604C621.468 2.18604 621.916 1.73832 621.916 1.18604C621.916 0.63375 621.468 0.186035 620.916 0.186035V2.18604ZM625.935 0.186035C625.383 0.186035 624.935 0.63375 624.935 1.18604C624.935 1.73832 625.383 2.18604 625.935 2.18604V0.186035ZM630.954 2.18604C631.506 2.18604 631.954 1.73832 631.954 1.18604C631.954 0.63375 631.506 0.186035 630.954 0.186035V2.18604ZM635.973 0.186035C635.421 0.186035 634.973 0.63375 634.973 1.18604C634.973 1.73832 635.421 2.18604 635.973 2.18604V0.186035ZM640.992 2.18604C641.544 2.18604 641.992 1.73832 641.992 1.18604C641.992 0.63375 641.544 0.186035 640.992 0.186035V2.18604ZM646.011 0.186035C645.459 0.186035 645.011 0.63375 645.011 1.18604C645.011 1.73832 645.459 2.18604 646.011 2.18604V0.186035ZM651.03 2.18604C651.582 2.18604 652.03 1.73832 652.03 1.18604C652.03 0.63375 651.582 0.186035 651.03 0.186035V2.18604ZM656.049 0.186035C655.497 0.186035 655.049 0.63375 655.049 1.18604C655.049 1.73832 655.497 2.18604 656.049 2.18604V0.186035ZM661.068 2.18604C661.62 2.18604 662.068 1.73832 662.068 1.18604C662.068 0.63375 661.62 0.186035 661.068 0.186035V2.18604ZM666.087 0.186035C665.535 0.186035 665.087 0.63375 665.087 1.18604C665.087 1.73832 665.535 2.18604 666.087 2.18604V0.186035ZM671.106 2.18604C671.659 2.18604 672.106 1.73832 672.106 1.18604C672.106 0.63375 671.659 0.186035 671.106 0.186035V2.18604ZM676.125 0.186035C675.573 0.186035 675.125 0.63375 675.125 1.18604C675.125 1.73832 675.573 2.18604 676.125 2.18604V0.186035ZM681.144 2.18604C681.697 2.18604 682.144 1.73832 682.144 1.18604C682.144 0.63375 681.697 0.186035 681.144 0.186035V2.18604ZM686.163 0.186035C685.611 0.186035 685.163 0.63375 685.163 1.18604C685.163 1.73832 685.611 2.18604 686.163 2.18604V0.186035ZM691.182 2.18604C691.735 2.18604 692.182 1.73832 692.182 1.18604C692.182 0.63375 691.735 0.186035 691.182 0.186035V2.18604ZM696.201 0.186035C695.649 0.186035 695.201 0.63375 695.201 1.18604C695.201 1.73832 695.649 2.18604 696.201 2.18604V0.186035ZM701.221 2.18604C701.773 2.18604 702.221 1.73832 702.221 1.18604C702.221 0.63375 701.773 0.186035 701.221 0.186035V2.18604ZM706.24 0.186035C705.687 0.186035 705.24 0.63375 705.24 1.18604C705.24 1.73832 705.687 2.18604 706.24 2.18604V0.186035ZM711.259 2.18604C711.811 2.18604 712.259 1.73832 712.259 1.18604C712.259 0.63375 711.811 0.186035 711.259 0.186035V2.18604ZM716.278 0.186035C715.725 0.186035 715.278 0.63375 715.278 1.18604C715.278 1.73832 715.725 2.18604 716.278 2.18604V0.186035ZM721.297 2.18604C721.849 2.18604 722.297 1.73832 722.297 1.18604C722.297 0.63375 721.849 0.186035 721.297 0.186035V2.18604ZM726.316 0.186035C725.763 0.186035 725.316 0.63375 725.316 1.18604C725.316 1.73832 725.763 2.18604 726.316 2.18604V0.186035ZM731.335 2.18604C731.887 2.18604 732.335 1.73832 732.335 1.18604C732.335 0.63375 731.887 0.186035 731.335 0.186035V2.18604ZM736.354 0.186035C735.802 0.186035 735.354 0.63375 735.354 1.18604C735.354 1.73832 735.802 2.18604 736.354 2.18604V0.186035ZM741.373 2.18604C741.925 2.18604 742.373 1.73832 742.373 1.18604C742.373 0.63375 741.925 0.186035 741.373 0.186035V2.18604ZM746.392 0.186035C745.84 0.186035 745.392 0.63375 745.392 1.18604C745.392 1.73832 745.84 2.18604 746.392 2.18604V0.186035ZM751.411 2.18604C751.963 2.18604 752.411 1.73832 752.411 1.18604C752.411 0.63375 751.963 0.186035 751.411 0.186035V2.18604ZM756.43 0.186035C755.878 0.186035 755.43 0.63375 755.43 1.18604C755.43 1.73832 755.878 2.18604 756.43 2.18604V0.186035ZM761.449 2.18604C762.001 2.18604 762.449 1.73832 762.449 1.18604C762.449 0.63375 762.001 0.186035 761.449 0.186035V2.18604ZM766.468 0.186035C765.916 0.186035 765.468 0.63375 765.468 1.18604C765.468 1.73832 765.916 2.18604 766.468 2.18604V0.186035ZM771.487 2.18604C772.039 2.18604 772.487 1.73832 772.487 1.18604C772.487 0.63375 772.039 0.186035 771.487 0.186035V2.18604ZM776.506 0.186035C775.954 0.186035 775.506 0.63375 775.506 1.18604C775.506 1.73832 775.954 2.18604 776.506 2.18604V0.186035ZM781.525 2.18604C782.077 2.18604 782.525 1.73832 782.525 1.18604C782.525 0.63375 782.077 0.186035 781.525 0.186035V2.18604ZM786.544 0.186035C785.992 0.186035 785.544 0.63375 785.544 1.18604C785.544 1.73832 785.992 2.18604 786.544 2.18604V0.186035ZM791.563 2.18604C792.116 2.18604 792.563 1.73832 792.563 1.18604C792.563 0.63375 792.116 0.186035 791.563 0.186035V2.18604ZM796.582 0.186035C796.03 0.186035 795.582 0.63375 795.582 1.18604C795.582 1.73832 796.03 2.18604 796.582 2.18604V0.186035ZM801.601 2.18604C802.154 2.18604 802.601 1.73832 802.601 1.18604C802.601 0.63375 802.154 0.186035 801.601 0.186035V2.18604ZM806.62 0.186035C806.068 0.186035 805.62 0.63375 805.62 1.18604C805.62 1.73832 806.068 2.18604 806.62 2.18604V0.186035ZM811.639 2.18604C812.192 2.18604 812.639 1.73832 812.639 1.18604C812.639 0.63375 812.192 0.186035 811.639 0.186035V2.18604ZM816.659 0.186035C816.106 0.186035 815.659 0.63375 815.659 1.18604C815.659 1.73832 816.106 2.18604 816.659 2.18604V0.186035ZM821.678 2.18604C822.23 2.18604 822.678 1.73832 822.678 1.18604C822.678 0.63375 822.23 0.186035 821.678 0.186035V2.18604ZM826.697 0.186035C826.144 0.186035 825.697 0.63375 825.697 1.18604C825.697 1.73832 826.144 2.18604 826.697 2.18604V0.186035ZM831.716 2.18604C832.268 2.18604 832.716 1.73832 832.716 1.18604C832.716 0.63375 832.268 0.186035 831.716 0.186035V2.18604ZM836.735 0.186035C836.182 0.186035 835.735 0.63375 835.735 1.18604C835.735 1.73832 836.182 2.18604 836.735 2.18604V0.186035ZM841.754 2.18604C842.306 2.18604 842.754 1.73832 842.754 1.18604C842.754 0.63375 842.306 0.186035 841.754 0.186035V2.18604ZM846.773 0.186035C846.221 0.186035 845.773 0.63375 845.773 1.18604C845.773 1.73832 846.221 2.18604 846.773 2.18604V0.186035ZM851.792 2.18604C852.344 2.18604 852.792 1.73832 852.792 1.18604C852.792 0.63375 852.344 0.186035 851.792 0.186035V2.18604ZM856.811 0.186035C856.259 0.186035 855.811 0.63375 855.811 1.18604C855.811 1.73832 856.259 2.18604 856.811 2.18604V0.186035ZM861.83 2.18604C862.382 2.18604 862.83 1.73832 862.83 1.18604C862.83 0.63375 862.382 0.186035 861.83 0.186035V2.18604ZM866.849 0.186035C866.297 0.186035 865.849 0.63375 865.849 1.18604C865.849 1.73832 866.297 2.18604 866.849 2.18604V0.186035ZM871.868 2.18604C872.42 2.18604 872.868 1.73832 872.868 1.18604C872.868 0.63375 872.42 0.186035 871.868 0.186035V2.18604ZM876.887 0.186035C876.335 0.186035 875.887 0.63375 875.887 1.18604C875.887 1.73832 876.335 2.18604 876.887 2.18604V0.186035ZM881.906 2.18604C882.458 2.18604 882.906 1.73832 882.906 1.18604C882.906 0.63375 882.458 0.186035 881.906 0.186035V2.18604ZM886.925 0.186035C886.373 0.186035 885.925 0.63375 885.925 1.18604C885.925 1.73832 886.373 2.18604 886.925 2.18604V0.186035ZM891.944 2.18604C892.496 2.18604 892.944 1.73832 892.944 1.18604C892.944 0.63375 892.496 0.186035 891.944 0.186035V2.18604ZM896.963 0.186035C896.411 0.186035 895.963 0.63375 895.963 1.18604C895.963 1.73832 896.411 2.18604 896.963 2.18604V0.186035ZM901.982 2.18604C902.534 2.18604 902.982 1.73832 902.982 1.18604C902.982 0.63375 902.534 0.186035 901.982 0.186035V2.18604ZM907.001 0.186035C906.449 0.186035 906.001 0.63375 906.001 1.18604C906.001 1.73832 906.449 2.18604 907.001 2.18604V0.186035ZM912.02 2.18604C912.573 2.18604 913.02 1.73832 913.02 1.18604C913.02 0.63375 912.573 0.186035 912.02 0.186035V2.18604ZM917.039 0.186035C916.487 0.186035 916.039 0.63375 916.039 1.18604C916.039 1.73832 916.487 2.18604 917.039 2.18604V0.186035ZM922.058 2.18604C922.611 2.18604 923.058 1.73832 923.058 1.18604C923.058 0.63375 922.611 0.186035 922.058 0.186035V2.18604ZM927.077 0.186035C926.525 0.186035 926.077 0.63375 926.077 1.18604C926.077 1.73832 926.525 2.18604 927.077 2.18604V0.186035ZM932.096 2.18604C932.649 2.18604 933.096 1.73832 933.096 1.18604C933.096 0.63375 932.649 0.186035 932.096 0.186035V2.18604ZM937.116 0.186035C936.563 0.186035 936.116 0.63375 936.116 1.18604C936.116 1.73832 936.563 2.18604 937.116 2.18604V0.186035ZM942.135 2.18604C942.687 2.18604 943.135 1.73832 943.135 1.18604C943.135 0.63375 942.687 0.186035 942.135 0.186035V2.18604ZM947.154 0.186035C946.601 0.186035 946.154 0.63375 946.154 1.18604C946.154 1.73832 946.601 2.18604 947.154 2.18604V0.186035ZM952.173 2.18604C952.725 2.18604 953.173 1.73832 953.173 1.18604C953.173 0.63375 952.725 0.186035 952.173 0.186035V2.18604ZM957.192 0.186035C956.639 0.186035 956.192 0.63375 956.192 1.18604C956.192 1.73832 956.639 2.18604 957.192 2.18604V0.186035ZM962.211 2.18604C962.763 2.18604 963.211 1.73832 963.211 1.18604C963.211 0.63375 962.763 0.186035 962.211 0.186035V2.18604ZM967.23 0.186035C966.678 0.186035 966.23 0.63375 966.23 1.18604C966.23 1.73832 966.678 2.18604 967.23 2.18604V0.186035ZM972.249 2.18604C972.801 2.18604 973.249 1.73832 973.249 1.18604C973.249 0.63375 972.801 0.186035 972.249 0.186035V2.18604ZM977.268 0.186035C976.716 0.186035 976.268 0.63375 976.268 1.18604C976.268 1.73832 976.716 2.18604 977.268 2.18604V0.186035ZM982.287 2.18604C982.839 2.18604 983.287 1.73832 983.287 1.18604C983.287 0.63375 982.839 0.186035 982.287 0.186035V2.18604ZM987.306 0.186035C986.754 0.186035 986.306 0.63375 986.306 1.18604C986.306 1.73832 986.754 2.18604 987.306 2.18604V0.186035ZM992.325 2.18604C992.877 2.18604 993.325 1.73832 993.325 1.18604C993.325 0.63375 992.877 0.186035 992.325 0.186035V2.18604ZM997.344 0.186035C996.792 0.186035 996.344 0.63375 996.344 1.18604C996.344 1.73832 996.792 2.18604 997.344 2.18604V0.186035ZM1002.36 2.18604C1002.92 2.18604 1003.36 1.73832 1003.36 1.18604C1003.36 0.63375 1002.92 0.186035 1002.36 0.186035V2.18604ZM1007.38 0.186035C1006.83 0.186035 1006.38 0.63375 1006.38 1.18604C1006.38 1.73832 1006.83 2.18604 1007.38 2.18604V0.186035ZM1012.4 2.18604C1012.95 2.18604 1013.4 1.73832 1013.4 1.18604C1013.4 0.63375 1012.95 0.186035 1012.4 0.186035V2.18604ZM1017.42 0.186035C1016.87 0.186035 1016.42 0.63375 1016.42 1.18604C1016.42 1.73832 1016.87 2.18604 1017.42 2.18604V0.186035ZM1022.44 2.18604C1022.99 2.18604 1023.44 1.73832 1023.44 1.18604C1023.44 0.63375 1022.99 0.186035 1022.44 0.186035V2.18604ZM1027.46 0.186035C1026.91 0.186035 1026.46 0.63375 1026.46 1.18604C1026.46 1.73832 1026.91 2.18604 1027.46 2.18604V0.186035ZM1032.48 2.18604C1033.03 2.18604 1033.48 1.73832 1033.48 1.18604C1033.48 0.63375 1033.03 0.186035 1032.48 0.186035V2.18604ZM1037.5 0.186035C1036.94 0.186035 1036.5 0.63375 1036.5 1.18604C1036.5 1.73832 1036.94 2.18604 1037.5 2.18604V0.186035ZM1042.52 2.18604C1043.07 2.18604 1043.52 1.73832 1043.52 1.18604C1043.52 0.63375 1043.07 0.186035 1042.52 0.186035V2.18604ZM1047.53 0.186035C1046.98 0.186035 1046.53 0.63375 1046.53 1.18604C1046.53 1.73832 1046.98 2.18604 1047.53 2.18604V0.186035ZM1049.04 3.85813C1049.04 4.41041 1049.49 4.85813 1050.04 4.85813C1050.6 4.85813 1051.04 4.41041 1051.04 3.85813H1049.04ZM1051.04 9.20232C1051.04 8.65004 1050.6 8.20232 1050.04 8.20232C1049.49 8.20232 1049.04 8.65004 1049.04 9.20232H1051.04ZM1049.04 14.5465C1049.04 15.0988 1049.49 15.5465 1050.04 15.5465C1050.6 15.5465 1051.04 15.0988 1051.04 14.5465H1049.04ZM1051.04 19.8907C1051.04 19.3384 1050.6 18.8907 1050.04 18.8907C1049.49 18.8907 1049.04 19.3384 1049.04 19.8907H1051.04ZM1049.04 25.2349C1049.04 25.7872 1049.49 26.2349 1050.04 26.2349C1050.6 26.2349 1051.04 25.7872 1051.04 25.2349H1049.04ZM1051.04 30.5791C1051.04 30.0268 1050.6 29.5791 1050.04 29.5791C1049.49 29.5791 1049.04 30.0268 1049.04 30.5791H1051.04ZM1049.04 35.9233C1049.04 36.4756 1049.49 36.9233 1050.04 36.9233C1050.6 36.9233 1051.04 36.4756 1051.04 35.9233H1049.04ZM1051.04 41.2675C1051.04 40.7152 1050.6 40.2675 1050.04 40.2675C1049.49 40.2675 1049.04 40.7152 1049.04 41.2675H1051.04ZM1049.04 46.6116C1049.04 47.1639 1049.49 47.6116 1050.04 47.6116C1050.6 47.6116 1051.04 47.1639 1051.04 46.6116H1049.04ZM1051.04 51.9558C1051.04 51.4035 1050.6 50.9558 1050.04 50.9558C1049.49 50.9558 1049.04 51.4035 1049.04 51.9558H1051.04ZM7.08313 54.6279V51.9558H5.08313V54.6279H7.08313ZM7.08313 46.6116V41.2675H5.08313V46.6116H7.08313ZM7.08313 35.9233V30.5791H5.08313V35.9233H7.08313ZM7.08313 25.2349V19.8907H5.08313V25.2349H7.08313ZM7.08313 14.5465V9.20232H5.08313V14.5465H7.08313ZM7.08313 3.85813V1.18604H5.08313V3.85813H7.08313ZM6.08313 2.18604H8.59265V0.186035H6.08313V2.18604ZM13.6117 2.18604H18.6307V0.186035H13.6117V2.18604ZM23.6498 2.18604H28.6688V0.186035H23.6498V2.18604ZM33.6879 2.18604H38.7069V0.186035H33.6879V2.18604ZM43.7259 2.18604H48.745V0.186035H43.7259V2.18604ZM53.764 2.18604H58.7831V0.186035H53.764V2.18604ZM63.8021 2.18604H68.8212V0.186035H63.8021V2.18604ZM73.8402 2.18604H78.8592V0.186035H73.8402V2.18604ZM83.8783 2.18604H88.8973V0.186035H83.8783V2.18604ZM93.9164 2.18604H98.9354V0.186035H93.9164V2.18604ZM103.954 2.18604H108.974V0.186035H103.954V2.18604ZM113.993 2.18604H119.012V0.186035H113.993V2.18604ZM124.031 2.18604H129.05V0.186035H124.031V2.18604ZM134.069 2.18604H139.088V0.186035H134.069V2.18604ZM144.107 2.18604H149.126V0.186035H144.107V2.18604ZM154.145 2.18604H159.164V0.186035H154.145V2.18604ZM164.183 2.18604H169.202V0.186035H164.183V2.18604ZM174.221 2.18604H179.24V0.186035H174.221V2.18604ZM184.259 2.18604H189.278V0.186035H184.259V2.18604ZM194.297 2.18604H199.316V0.186035H194.297V2.18604ZM204.335 2.18604H209.354V0.186035H204.335V2.18604ZM214.373 2.18604H219.392V0.186035H214.373V2.18604ZM224.411 2.18604H229.431V0.186035H224.411V2.18604ZM234.45 2.18604H239.469V0.186035H234.45V2.18604ZM244.488 2.18604H249.507V0.186035H244.488V2.18604ZM254.526 2.18604H259.545V0.186035H254.526V2.18604ZM264.564 2.18604H269.583V0.186035H264.564V2.18604ZM274.602 2.18604H279.621V0.186035H274.602V2.18604ZM284.64 2.18604H289.659V0.186035H284.64V2.18604ZM294.678 2.18604H299.697V0.186035H294.678V2.18604ZM304.716 2.18604H309.735V0.186035H304.716V2.18604ZM314.754 2.18604H319.773V0.186035H314.754V2.18604ZM324.792 2.18604H329.811V0.186035H324.792V2.18604ZM334.83 2.18604H339.849V0.186035H334.83V2.18604ZM344.868 2.18604H349.888V0.186035H344.868V2.18604ZM354.907 2.18604H359.926V0.186035H354.907V2.18604ZM364.945 2.18604H369.964V0.186035H364.945V2.18604ZM374.983 2.18604H380.002V0.186035H374.983V2.18604ZM385.021 2.18604H390.04V0.186035H385.021V2.18604ZM395.059 2.18604H400.078V0.186035H395.059V2.18604ZM405.097 2.18604H410.116V0.186035H405.097V2.18604ZM415.135 2.18604H420.154V0.186035H415.135V2.18604ZM425.173 2.18604H430.192V0.186035H425.173V2.18604ZM435.211 2.18604H440.23V0.186035H435.211V2.18604ZM445.249 2.18604H450.268V0.186035H445.249V2.18604ZM455.287 2.18604H460.306V0.186035H455.287V2.18604ZM465.326 2.18604H470.345V0.186035H465.326V2.18604ZM475.364 2.18604H480.383V0.186035H475.364V2.18604ZM485.402 2.18604H490.421V0.186035H485.402V2.18604ZM495.44 2.18604H500.459V0.186035H495.44V2.18604ZM505.478 2.18604H510.497V0.186035H505.478V2.18604ZM515.516 2.18604H520.535V0.186035H515.516V2.18604ZM525.554 2.18604H530.573V0.186035H525.554V2.18604ZM535.592 2.18604H540.611V0.186035H535.592V2.18604ZM545.63 2.18604H550.649V0.186035H545.63V2.18604ZM555.668 2.18604H560.687V0.186035H555.668V2.18604ZM565.706 2.18604H570.725V0.186035H565.706V2.18604ZM575.744 2.18604H580.763V0.186035H575.744V2.18604ZM585.783 2.18604H590.802V0.186035H585.783V2.18604ZM595.821 2.18604H600.84V0.186035H595.821V2.18604ZM605.859 2.18604H610.878V0.186035H605.859V2.18604ZM615.897 2.18604H620.916V0.186035H615.897V2.18604ZM625.935 2.18604H630.954V0.186035H625.935V2.18604ZM635.973 2.18604H640.992V0.186035H635.973V2.18604ZM646.011 2.18604H651.03V0.186035H646.011V2.18604ZM656.049 2.18604H661.068V0.186035H656.049V2.18604ZM666.087 2.18604H671.106V0.186035H666.087V2.18604ZM676.125 2.18604H681.144V0.186035H676.125V2.18604ZM686.163 2.18604H691.182V0.186035H686.163V2.18604ZM696.201 2.18604H701.221V0.186035H696.201V2.18604ZM706.24 2.18604H711.259V0.186035H706.24V2.18604ZM716.278 2.18604H721.297V0.186035H716.278V2.18604ZM726.316 2.18604H731.335V0.186035H726.316V2.18604ZM736.354 2.18604H741.373V0.186035H736.354V2.18604ZM746.392 2.18604H751.411V0.186035H746.392V2.18604ZM756.43 2.18604H761.449V0.186035H756.43V2.18604ZM766.468 2.18604H771.487V0.186035H766.468V2.18604ZM776.506 2.18604H781.525V0.186035H776.506V2.18604ZM786.544 2.18604H791.563V0.186035H786.544V2.18604ZM796.582 2.18604H801.601V0.186035H796.582V2.18604ZM806.62 2.18604H811.639V0.186035H806.62V2.18604ZM816.659 2.18604H821.678V0.186035H816.659V2.18604ZM826.697 2.18604H831.716V0.186035H826.697V2.18604ZM836.735 2.18604H841.754V0.186035H836.735V2.18604ZM846.773 2.18604H851.792V0.186035H846.773V2.18604ZM856.811 2.18604H861.83V0.186035H856.811V2.18604ZM866.849 2.18604H871.868V0.186035H866.849V2.18604ZM876.887 2.18604H881.906V0.186035H876.887V2.18604ZM886.925 2.18604H891.944V0.186035H886.925V2.18604ZM896.963 2.18604H901.982V0.186035H896.963V2.18604ZM907.001 2.18604H912.02V0.186035H907.001V2.18604ZM917.039 2.18604H922.058V0.186035H917.039V2.18604ZM927.077 2.18604H932.096V0.186035H927.077V2.18604ZM937.116 2.18604H942.135V0.186035H937.116V2.18604ZM947.154 2.18604H952.173V0.186035H947.154V2.18604ZM957.192 2.18604H962.211V0.186035H957.192V2.18604ZM967.23 2.18604H972.249V0.186035H967.23V2.18604ZM977.268 2.18604H982.287V0.186035H977.268V2.18604ZM987.306 2.18604H992.325V0.186035H987.306V2.18604ZM997.344 2.18604H1002.36V0.186035H997.344V2.18604ZM1007.38 2.18604H1012.4V0.186035H1007.38V2.18604ZM1017.42 2.18604H1022.44V0.186035H1017.42V2.18604ZM1027.46 2.18604H1032.48V0.186035H1027.46V2.18604ZM1037.5 2.18604H1042.52V0.186035H1037.5V2.18604ZM1047.53 2.18604H1050.04V0.186035H1047.53V2.18604ZM1049.04 1.18604V3.85813H1051.04V1.18604H1049.04ZM1049.04 9.20232V14.5465H1051.04V9.20232H1049.04ZM1049.04 19.8907V25.2349H1051.04V19.8907H1049.04ZM1049.04 30.5791V35.9233H1051.04V30.5791H1049.04ZM1049.04 41.2675V46.6116H1051.04V41.2675H1049.04ZM1049.04 51.9558V54.6279H1051.04V51.9558H1049.04Z" fill="#F2F6FF"/>
</svg>
