<svg width="41" height="46" viewBox="0 0 41 46" fill="none" xmlns="http://www.w3.org/2000/svg">
<path d="M18.2254 45.9751V34.6019C18.2254 32.4789 17.9032 30.9057 17.2587 29.8821C16.6142 28.8585 15.7612 27.8539 14.6997 26.8682L17.9411 23.6268C18.396 24.0438 18.832 24.4889 19.249 24.962C19.666 25.4367 20.083 25.9394 20.5 26.4701C21.0308 25.7498 21.5714 25.1144 22.1218 24.564C22.6708 24.015 23.2296 23.4752 23.7982 22.9444C25.2388 21.6176 26.5468 20.0822 27.722 18.3383C28.8972 16.5944 29.5227 13.5426 29.5986 9.1829L26.016 12.7654L22.7747 9.58096L31.8732 0.482422L40.9717 9.58096L37.7872 12.7654L34.1478 9.1829C34.072 14.6041 33.238 18.4611 31.6457 20.754C30.0535 23.0483 28.4612 24.9158 26.869 26.3564C25.6559 27.4558 24.6702 28.5264 23.912 29.5682C23.1538 30.6115 22.7747 32.2894 22.7747 34.6019V45.9751H18.2254ZM7.30715 14.5283C7.15551 13.7701 7.05087 12.936 6.99325 12.0262C6.93714 11.1163 6.89013 10.1686 6.85222 9.1829L3.21281 12.7654L0.0283203 9.58096L9.12686 0.482422L18.2254 9.58096L14.984 12.7654L11.4015 9.23976C11.4015 10.0359 11.4394 10.785 11.5152 11.4871C11.591 12.1877 11.6669 12.8413 11.7427 13.4478L7.30715 14.5283ZM12.1976 24.5367C11.4394 23.7406 10.71 22.8117 10.0094 21.7502C9.30731 20.6888 8.69088 19.3808 8.16014 17.8265L12.5388 16.7461C12.9179 17.7696 13.3539 18.6416 13.8467 19.3619C14.3396 20.0822 14.8703 20.7267 15.439 21.2953L12.1976 24.5367Z" fill="#37B992"/>
</svg>
