<svg width="13" height="13" viewBox="0 0 13 13" fill="none" xmlns="http://www.w3.org/2000/svg">
<path d="M12.6094 12.0698H9.97536V8.30078C9.97536 5.82278 7.3354 6.03178 7.3354 8.30078V12.0698H4.6974V4.16602H7.33437V5.60596C8.48437 3.47596 12.6094 3.31802 12.6094 7.64502V12.0698ZM1.03139 2.56104C0.896848 2.42548 0.79032 2.26462 0.717912 2.08789C0.645504 1.91116 0.608638 1.72175 0.609392 1.53076C0.608471 1.33957 0.645261 1.1501 0.717668 0.973145C0.790076 0.796189 0.896705 0.635218 1.03139 0.499512C1.16607 0.363806 1.32618 0.25636 1.50258 0.182617C1.67898 0.108874 1.86821 0.070348 2.0594 0.0698242C2.8614 0.0698242 3.51039 0.723785 3.51039 1.52979C3.51131 1.72098 3.47452 1.91094 3.40212 2.08789C3.32971 2.26485 3.22308 2.42533 3.0884 2.56104C2.95371 2.69674 2.79361 2.80468 2.6172 2.87842C2.4408 2.95216 2.25158 2.99069 2.06038 2.99121C1.86903 2.99062 1.67969 2.9522 1.50313 2.87842C1.32657 2.80464 1.16627 2.69677 1.03139 2.56104ZM3.37837 12.0698H0.741411V4.16602H3.37837V12.0698Z" fill="#4B78F6"/>
</svg>
