<svg width="59" height="59" viewBox="0 0 59 59" fill="none" xmlns="http://www.w3.org/2000/svg">
<path d="M0.50415 11.3278C0.50415 8.46349 1.642 5.71647 3.6674 3.69108C5.69279 1.66569 8.43981 0.527832 11.3041 0.527832H40.1041C42.9685 0.527832 45.7155 1.66569 47.7409 3.69108C49.7663 5.71647 50.9041 8.46349 50.9041 11.3278V28.4566C49.7843 27.7063 48.5749 27.0991 47.3041 26.6494V14.9278H4.10415V40.1278C4.10415 42.0374 4.86272 43.8687 6.21298 45.219C7.56324 46.5693 9.39459 47.3278 11.3041 47.3278H26.6257C27.0793 48.6094 27.6878 49.819 28.433 50.9278H11.3041C8.43981 50.9278 5.69279 49.79 3.6674 47.7646C1.642 45.7392 0.50415 42.9922 0.50415 40.1278V11.3278ZM43.9057 44.923C43.5127 45.1886 43.0711 45.3739 42.6062 45.4682C42.1413 45.5625 41.6624 45.5641 41.1969 45.4727C40.7315 45.3814 40.2886 45.1989 39.8939 44.9359C39.4992 44.6728 39.1603 44.3344 38.8968 43.9399C38.6333 43.5455 38.4503 43.1029 38.3585 42.6375C38.2666 42.1722 38.2675 41.6933 38.3613 41.2283C38.4551 40.7633 38.6399 40.3214 38.905 39.9281C39.1701 39.5347 39.5103 39.1977 39.9061 38.9362C40.6995 38.4485 41.6511 38.2872 42.5609 38.4862C43.4707 38.6852 44.268 39.2291 44.7853 40.0036C45.3026 40.7781 45.4995 41.7229 45.3349 42.6396C45.1702 43.5562 44.6566 44.3734 43.9021 44.9194L43.9057 44.923ZM54.3205 40.1278H56.3041C56.7815 40.1278 57.2394 40.3175 57.5769 40.655C57.9145 40.9926 58.1041 41.4504 58.1041 41.9278C58.1041 42.4052 57.9145 42.8631 57.5769 43.2006C57.2394 43.5382 56.7815 43.7278 56.3041 43.7278H54.3205C53.9313 46.4051 52.6875 48.8851 50.7744 50.7981C48.8614 52.7112 46.3815 53.955 43.7041 54.3442V56.3278C43.7041 56.8052 43.5145 57.2631 43.1769 57.6006C42.8394 57.9382 42.3815 58.1278 41.9041 58.1278C41.4268 58.1278 40.9689 57.9382 40.6314 57.6006C40.2938 57.2631 40.1041 56.8052 40.1041 56.3278V54.3442C37.4268 53.955 34.9469 52.7112 33.0339 50.7981C31.1208 48.8851 29.877 46.4051 29.4877 43.7278H27.5042C27.0268 43.7278 26.5689 43.5382 26.2314 43.2006C25.8938 42.8631 25.7041 42.4052 25.7041 41.9278C25.7041 41.4504 25.8938 40.9926 26.2314 40.655C26.5689 40.3175 27.0268 40.1278 27.5042 40.1278H29.4877C29.877 37.4505 31.1208 34.9706 33.0339 33.0576C34.9469 31.1445 37.4268 29.9007 40.1041 29.5114V27.5278C40.1041 27.0504 40.2938 26.5926 40.6314 26.255C40.9689 25.9175 41.4268 25.7278 41.9041 25.7278C42.3815 25.7278 42.8394 25.9175 43.1769 26.255C43.5145 26.5926 43.7041 27.0504 43.7041 27.5278V29.5114C46.3815 29.9007 48.8614 31.1445 50.7744 33.0576C52.6875 34.9706 53.9313 37.4505 54.3205 40.1278ZM42.7861 50.8846C43.9624 50.7688 45.1043 50.4224 46.1466 49.8653C47.189 49.3082 48.1114 48.5512 48.8612 47.6376C49.611 46.724 50.1736 45.6716 50.5167 44.5406C50.8598 43.4096 50.9768 42.2221 50.861 41.0458C50.7451 39.8696 50.3988 38.7277 49.8416 37.6854C49.2845 36.643 48.5275 35.7206 47.6139 34.9707C46.7003 34.2209 45.6479 33.6584 44.5169 33.3153C43.3859 32.9722 42.1984 32.8552 41.0221 32.971C38.6467 33.205 36.4614 34.373 34.9471 36.2181C33.4328 38.0632 32.7134 40.4343 32.9473 42.8098C33.1813 45.1853 34.3493 47.3706 36.1944 48.8849C38.0395 50.3992 40.4107 51.1186 42.7861 50.8846Z" fill="#37B992"/>
</svg>
