<svg width="49" height="49" viewBox="0 0 49 49" fill="none" xmlns="http://www.w3.org/2000/svg">
<path d="M39.3193 19.5522V14.7148H44.1567V19.5522H39.3193ZM39.3193 24.3896V19.5522H34.4819V24.3896H39.3193ZM39.3193 14.7148V9.87744H34.4819V14.7148H39.3193ZM34.4819 2.23435V5.04004H39.3193C37.7956 3.92744 36.1992 2.98414 34.4819 2.23435ZM39.3193 5.04004V9.87744H44.1567C42.7539 8.06342 41.1334 6.44289 39.3193 5.04004ZM44.1567 9.87744V14.7148H46.9624C46.2126 12.9976 45.2693 11.4012 44.1567 9.87744ZM48.9941 24.3896C48.9941 22.7449 48.8248 21.1244 48.5104 19.5522H44.1567V24.3896H48.9941ZM34.4819 9.87744V5.04004H29.6445V9.87744H34.4819ZM34.4819 34.0645H39.3193V29.2271H34.4819V34.0645ZM39.3193 38.9019H44.1567V34.0645H39.3193V38.9019ZM34.4819 43.7393H39.3193V38.9019H34.4819V43.7393ZM29.6445 48.0929C31.3376 47.7543 32.934 47.2222 34.4819 46.545V43.7393H29.6445V48.0929ZM39.3193 29.2271H44.1567V24.3896H39.3193V29.2271ZM34.4819 14.7148H29.6445V19.5522H34.4819V14.7148ZM44.1567 34.0645H46.9624C47.6397 32.5165 48.1718 30.9201 48.5104 29.2271H44.1567V34.0645ZM34.4819 24.3896H29.6445V29.2271H34.4819V24.3896ZM24.8071 38.9019V34.0645H29.6445V29.2271H24.8071V24.3896H29.6445V19.5522H24.8071V14.7148H29.6445V9.87744H24.8071V5.04004H29.6445V0.686377C28.0724 0.371946 26.476 0.202637 24.8071 0.202637C11.5043 0.202637 0.620117 11.0868 0.620117 24.3896C0.620117 37.6925 11.5043 48.5767 24.8071 48.5767V43.7393H29.6445V38.9019H24.8071ZM29.6445 38.9019H34.4819V34.0645H29.6445V38.9019Z" fill="#37B992"/>
</svg>
