<svg width="38" height="37" viewBox="0 0 38 37" fill="none" xmlns="http://www.w3.org/2000/svg">
<path d="M4.2041 36.3749C3.17285 36.3749 2.29035 36.0081 1.5566 35.2743C0.821602 34.5393 0.454102 33.6562 0.454102 32.6249V11.9999C0.454102 10.9687 0.821602 10.0862 1.5566 9.35244C2.29035 8.61744 3.17285 8.24994 4.2041 8.24994H11.7041V4.49994C11.7041 3.46869 12.0716 2.58556 12.8066 1.85056C13.5404 1.11681 14.4229 0.749939 15.4541 0.749939H22.9541C23.9854 0.749939 24.8685 1.11681 25.6035 1.85056C26.3372 2.58556 26.7041 3.46869 26.7041 4.49994V8.24994H34.2041C35.2354 8.24994 36.1185 8.61744 36.8535 9.35244C37.5872 10.0862 37.9541 10.9687 37.9541 11.9999V32.6249C37.9541 33.6562 37.5872 34.5393 36.8535 35.2743C36.1185 36.0081 35.2354 36.3749 34.2041 36.3749H4.2041ZM15.4541 8.24994H22.9541V4.49994H15.4541V8.24994Z" fill="#37B992"/>
</svg>
