<svg width="61" height="61" viewBox="0 0 61 61" fill="none" xmlns="http://www.w3.org/2000/svg">
<path d="M30.7041 0.728027C26.7644 0.728027 22.8634 1.504 19.2236 3.01164C15.5838 4.51928 12.2767 6.72907 9.4909 9.51482C3.86481 15.1409 0.704102 22.7715 0.704102 30.728C0.704102 38.6845 3.86481 46.3151 9.4909 51.9412C12.2767 54.727 15.5838 56.9368 19.2236 58.4444C22.8634 59.9521 26.7644 60.728 30.7041 60.728C38.6606 60.728 46.2912 57.5673 51.9173 51.9412C57.5434 46.3151 60.7041 38.6845 60.7041 30.728C60.7041 27.248 60.0741 23.798 58.8741 20.558L54.0741 25.358C54.4941 27.128 54.7041 28.928 54.7041 30.728C54.7041 37.0932 52.1755 43.1977 47.6747 47.6986C43.1738 52.1995 37.0693 54.728 30.7041 54.728C24.3389 54.728 18.2344 52.1995 13.7335 47.6986C9.23267 43.1977 6.7041 37.0932 6.7041 30.728C6.7041 24.3628 9.23267 18.2583 13.7335 13.7575C18.2344 9.25659 24.3389 6.72803 30.7041 6.72803C32.5041 6.72803 34.3041 6.93803 36.0741 7.35803L40.9041 2.52803C37.6341 1.35803 34.1841 0.728027 30.7041 0.728027ZM51.7041 0.728027L39.7041 12.728V17.228L32.0541 24.878C31.6041 24.728 31.1541 24.728 30.7041 24.728C29.1128 24.728 27.5867 25.3602 26.4615 26.4854C25.3362 27.6106 24.7041 29.1367 24.7041 30.728C24.7041 32.3193 25.3362 33.8454 26.4615 34.9707C27.5867 36.0959 29.1128 36.728 30.7041 36.728C32.2954 36.728 33.8215 36.0959 34.9467 34.9707C36.072 33.8454 36.7041 32.3193 36.7041 30.728C36.7041 30.278 36.7041 29.828 36.5541 29.378L44.2041 21.728H48.7041L60.7041 9.72803H51.7041V0.728027ZM30.7041 12.728C25.9302 12.728 21.3518 14.6245 17.9762 18.0001C14.6005 21.3758 12.7041 25.9541 12.7041 30.728C12.7041 35.5019 14.6005 40.0803 17.9762 43.456C21.3518 46.8316 25.9302 48.728 30.7041 48.728C35.478 48.728 40.0564 46.8316 43.432 43.456C46.8077 40.0803 48.7041 35.5019 48.7041 30.728H42.7041C42.7041 33.9106 41.4398 36.9629 39.1894 39.2133C36.9389 41.4637 33.8867 42.728 30.7041 42.728C27.5215 42.728 24.4693 41.4637 22.2188 39.2133C19.9684 36.9629 18.7041 33.9106 18.7041 30.728C18.7041 27.5454 19.9684 24.4932 22.2188 22.2427C24.4693 19.9923 27.5215 18.728 30.7041 18.728V12.728Z" fill="#37B992"/>
</svg>
